<svg xmlns="http://www.w3.org/2000/svg">
<defs>
<font id="Vonique92" horiz-adv-x="1615" >
  <font-face 
    font-family="Vonique 92"
    font-weight="400"
    font-stretch="normal"
    units-per-em="2048"
    panose-1="2 0 5 0 0 0 0 9 0 0"
    ascent="1638"
    descent="-410"
    x-height="1452"
    cap-height="1455"
    bbox="-14 -1342 2849 2038"
    underline-thickness="150"
    underline-position="-292"
    unicode-range="U+001D-2265"
  />
<missing-glyph horiz-adv-x="2459" 
d="M487 417h-66v325h66v-96q11 11 24 17t28 6q80 0 80 -102v-150h-66v145q0 41 -33 41t-33 -41v-145zM753 480q7 0 22 5q9 4 18 13q7 7 12 19q4 8 4 24t-4 23q-5 12 -12 19q-6 10 -18 14q-7 4 -22 4t-22 -4q-12 -4 -18 -14q-7 -7 -12 -19q-5 -15 -5 -23q0 -7 5 -24
q5 -12 12 -19q9 -9 18 -13q15 -5 22 -5zM817 636l60 35v-254h-65v33h-2q-16 -33 -66 -33q-24 -1 -45 9q-16 7 -38 26q-16 16 -25 39q-10 22 -9 47q-1 21 8 48q10 24 25 41q16 18 38 28q19 10 46 10q46 0 73 -29zM896 417v254h65v-41q6 15 13 27q9 12 15 16q14 6 22 7
q6 0 12.5 0.5t10 1t5.5 0.5l-21 -76q-28 0 -38 -12q-11 -14 -11 -41v-136h-73zM1046 417v325h72v-185h1l53 113h87l-63 -124l76 -129h-89l-64 110h-1v-110h-72zM1263 445l37 50q22 -22 52 -22q32 0 32 19q0 10 -18 15q-7 4 -19 5q-11 2 -21 6l-10 4l-10 4q-6 4 -8 6
q-3 2 -9 8t-11 21q-4 8 -4 29t7 34q7 14 20 24q12 11 28 15q12 4 35 4q21 0 42 -9q20 -9 36 -24l-39 -41q-17 14 -38 14q-24 0 -24 -14q0 -13 17 -18q5 -2 13 -3l8 -2l9 -2q18 -5 31 -12t24 -23q10 -11 8 -40q0 -22 -7 -35q-7 -14 -21 -25q-10 -10 -30 -16q-22 -5 -35 -5
q-24 0 -27 1q-12 1 -23 6l-11 5l-11 5l-11 8zM1526 417h-67v325h67v-96q9 11 23 17t28 6q81 0 81 -102v-150h-67v145q0 41 -33 41q-32 0 -32 -41v-145zM1838 500q18 16 18 42q0 7 -5 22q-4 12 -13 19q-7 9 -19 13q-15 5 -23 5q-7 0 -22 -5q-10 -4 -19 -13q-9 -8 -13 -19
q-5 -15 -5 -22q0 -26 18 -42q19 -18 41 -18t42 18zM1676 493q-11 31 -10 49q0 23 11 50q12 25 28 40q22 18 42 26q23 9 49 9t50 -9q18 -7 42 -26q18 -17 29 -40q10 -19 10 -50t-10 -50q-11 -23 -29 -40q-20 -18 -42 -27q-20 -10 -50 -10q-28 0 -48 10q-23 10 -43 27

<glyph glyph-name="T_h" unicode="Th" horiz-adv-x="2517" 
d="M1069 -23v1641h-438v-1638h-145v1638h-486v145h1119v-1h95v-591q1 2 55 62q197 222 474 222q279 0 475 -223q197 -221 198 -533l1 -718h-141l-1 718q-1 249 -158 427q-157 175 -375 175q-219 0 -373 -175q-134 -133 -155 -385v-761h-4v-3h-141z" />
    <glyph glyph-name="e_e" unicode="ee" horiz-adv-x="2829" 
d="M220 1029h1064q-27 52 -98 125q-181 179 -434 179t-434 -179q-71 -73 -98 -125zM1476 1029h1065q-27 52 -98 125q-181 179 -434 179t-434 -179q-70 -71 -99 -125zM1287 185q-222 -222 -535 -222t-535 222t-222 535q1 314 223 535q222 222 535 222t535 -222
q69 -69 94 -110q27 44 93 110q222 222 535 222t535 -222q151 -149 218 -369l-1345 4q-22 -72 -22 -170q0 -253 179 -434q181 -179 434 -179t434 179q103 103 151 243h150q-59 -204 -200 -344q-222 -222 -535 -222t-535 222t-222 535q0 104 18 166l-1109 4q-22 -70 -22 -170
q0 -253 179 -434q181 -179 434 -179t434 179q34 34 82 99l77 -136q-37 -45 -58 -64z" />
    <glyph glyph-name="f_f" unicode="ff" horiz-adv-x="1150" 
d="M475 1308h-228l-1 -1330h-142v1330h-104v147h104v186q2 132 93 225q93 94 224 94q112 0 186 -59q74 59 186 59q130 0 224 -94q10 -10 33 -38l-103 -100q-22 28 -31 37q-51 52 -123 52q-73 0 -124 -52q-51 -53 -51 -126v-184h120v-147h-120l-1 -1330h-142v1330zM247 1455
h228v186q2 94 38 151q-31 25 -92 25q-72 0 -123 -52q-51 -53 -51 -126v-184z" />
    <glyph glyph-name="f_i" unicode="fi" horiz-adv-x="816" 
d="M247 1455h469v-1475h-142v1328h-327l-1 -1330h-142v1330h-104v147h104v186q2 132 93 225q93 94 225 94t226 -94q63 -72 65 -235h-136q7 83 -32 135q-49 51 -123 51q-72 0 -123 -52q-52 -52 -52 -126v-184z" />
    <glyph glyph-name="f_f_i" unicode="ffi" horiz-adv-x="1141" 
d="M245 1455h226v186q2 94 38 151q-31 25 -91 25q-73 0 -122 -52q-51 -53 -51 -126v-184zM886 -20v1328h-273l-1 -1330h-141v1330h-226l-1 -1330h-141v1330h-103v147h103v186q2 133 92 225q91 94 223 94q111 0 184 -59q73 59 184 59q129 0 222 -94q14 -14 33 -37l-102 -101
q-23 28 -31 37q-51 52 -122 52q-73 0 -122 -52q-51 -53 -51 -126v-184h414v-1475h-141z" />
    <glyph glyph-name="f_l" unicode="fl" horiz-adv-x="765" 
d="M526 -20v1798q-44 39 -109 39q-73 0 -122 -52q-51 -53 -51 -126v-184h119v-147h-119v-1330h-141v1330h-103v147h103v186q2 133 92 225q91 94 222 94q129 0 222 -94q12 -12 26 -29v-1857h-139z" />
    <glyph glyph-name="f_f_l" unicode="ffl" horiz-adv-x="1126" 
d="M887 1455v323q-42 39 -108 39q-71 0 -120 -52q-51 -53 -51 -126v-184h279zM243 1455h224v186q2 94 38 151q-31 25 -90 25q-72 0 -121 -52q-51 -53 -51 -126v-184zM887 1308h-279l-1 -1330h-140v1330h-224l-1 -1330h-140v1330h-102v147h102v186q2 133 92 225q91 94 221 94
q111 0 182 -59q71 59 182 59q130 0 221 -94q10 -10 24 -27l2 -1857h-139v1326z" />
    <glyph glyph-name="t_t" unicode="tt" horiz-adv-x="1364" 
d="M781 1310h-299v-1330h-146v1330h-336v145h337v306h145v-306h300v306h145v-306h337v-145h-337v-1330h-146v1330z" />
    <glyph glyph-name=".notdef" horiz-adv-x="2459" 
d="M487 417h-66v325h66v-96q11 11 24 17t28 6q80 0 80 -102v-150h-66v145q0 41 -33 41t-33 -41v-145zM753 480q7 0 22 5q9 4 18 13q7 7 12 19q4 8 4 24t-4 23q-5 12 -12 19q-6 10 -18 14q-7 4 -22 4t-22 -4q-12 -4 -18 -14q-7 -7 -12 -19q-5 -15 -5 -23q0 -7 5 -24
q5 -12 12 -19q9 -9 18 -13q15 -5 22 -5zM817 636l60 35v-254h-65v33h-2q-16 -33 -66 -33q-24 -1 -45 9q-16 7 -38 26q-16 16 -25 39q-10 22 -9 47q-1 21 8 48q10 24 25 41q16 18 38 28q19 10 46 10q46 0 73 -29zM896 417v254h65v-41q6 15 13 27q9 12 15 16q14 6 22 7
q6 0 12.5 0.5t10 1t5.5 0.5l-21 -76q-28 0 -38 -12q-11 -14 -11 -41v-136h-73zM1046 417v325h72v-185h1l53 113h87l-63 -124l76 -129h-89l-64 110h-1v-110h-72zM1263 445l37 50q22 -22 52 -22q32 0 32 19q0 10 -18 15q-7 4 -19 5q-11 2 -21 6l-10 4l-10 4q-6 4 -8 6
q-3 2 -9 8t-11 21q-4 8 -4 29t7 34q7 14 20 24q12 11 28 15q12 4 35 4q21 0 42 -9q20 -9 36 -24l-39 -41q-17 14 -38 14q-24 0 -24 -14q0 -13 17 -18q5 -2 13 -3l8 -2l9 -2q18 -5 31 -12t24 -23q10 -11 8 -40q0 -22 -7 -35q-7 -14 -21 -25q-10 -10 -30 -16q-22 -5 -35 -5
q-24 0 -27 1q-12 1 -23 6l-11 5l-11 5l-11 8zM1526 417h-67v325h67v-96q9 11 23 17t28 6q81 0 81 -102v-150h-67v145q0 41 -33 41q-32 0 -32 -41v-145zM1838 500q18 16 18 42q0 7 -5 22q-4 12 -13 19q-7 9 -19 13q-15 5 -23 5q-7 0 -22 -5q-10 -4 -19 -13q-9 -8 -13 -19
q-5 -15 -5 -22q0 -26 18 -42q19 -18 41 -18t42 18zM1676 493q-11 31 -10 49q0 23 11 50q12 25 28 40q22 18 42 26q23 9 49 9t50 -9q18 -7 42 -26q18 -17 29 -40q10 -19 10 -50t-10 -50q-11 -23 -29 -40q-20 -18 -42 -27q-20 -10 -50 -10q-28 0 -48 10q-23 10 -43 27
q-18 17 -29 41zM2102 660v-74q-23 17 -47 17q-25 0 -42 -17t-17 -42q0 -9 5 -26q5 -12 12 -22q6 -10 18 -14q15 -5 25 -5q28 0 47 18v-72q-14 -8 -25 -9q-4 0 -7 -0.5t-5.5 -0.5t-4.5 -0.5t-3 -0.5h-2h-1q-29 -2 -53 9q-25 11 -42 28q-16 16 -27 40q-10 22 -9 46q0 29 9 54
q11 25 28 42q18 18 42 27t52 9q28 3 47 -7zM2122 417v325h72v-185h1l52 113h88l-64 -124l76 -129h-88l-64 110h-1v-110h-72zM2404 759q-9 9 -22 9t-22 -9t-9 -22t9 -22t22 -9t22 9t9 22t-9 22zM2407 711q-11 -11 -25 -11q-15 0 -26 11q-10 10 -10 26q0 15 10 25q11 11 26 11
q14 0 25 -11t11 -25q0 -15 -11 -26zM2371 753v-13h17l3 3q1 1 1 3q0 3 -2 5t-6 2h-13zM2371 717h-6v40h18q7 0 8 -1q4 -2 5 -3q0 -2 1 -5q1 -1 1 -2q0 -4 -3 -7t-9 -3q2 -2 4 -2l2 -3l2 -3l7 -11h-7l-5 9l-2 3l-2 2l-3 3q-1 1 -2 1h-9v-18zM1403 1369l1 1zM1286 1430l-1 15
v14l-6 -21l5 -5zM1487 1190v-2q0 -32 -31 -90q-4 -24 -21 -41q-17 -41 -59 -89l-3 -4l-2 -3q-6 -6 -8 -7l-6 -7l-5 -5l-8 -8l-3 -3l-2 -2l-1 -1l-17 -28l-13 -31l-16 -26l-11 -12l-5 -10l-1 -1l-1 -2l-3 -3q-1 -1 -2 -1h-1l-1 1q-2 -2 -3 -2h-1q-1 1 -1 2q-1 -1 -3 -1h-1
q-2 2 -2 5v3l3 11l9 21q7 13 7 18v1q0 2 -0.5 4t-0.5 3l-1 2q0 16 27 20l1 2v4q0 18 7 31q1 7 9 22q13 28 28 34q1 11 6 18q0 1 1 2t3 5q6 8 9 13q9 11 12 20q1 1 1 7v6l1 6q0 10 3 18v1q0 12 20 29l3 4l3 4q-7 1 -12 22l-3 18t-3 16q-9 1 -17 13v-4q0 -20 -10 -20
q-12 0 -25 18q0 -14 -8 -22q-6 -7 -15 -7q-22 1 -22 31q-16 -21 -24 -21q-2 0 -4 2q-3 5 -6 40q-16 -21 -26 -21q-3 0 -5 2q-6 4 -6 20q0 3 1 6v5l1 6q-7 -7 -17 -7q-8 0 -16 6q-5 8 -5 12v2q2 8 14 14q-30 0 -38 8q5 5 16 7q13 1 17 4q3 1 8 6l-8 -2q-3 0 -5 2q-5 3 -5 13
v3q-13 -19 -19 -19q-2 0 -2 3l2 14l1 6l1 6l2 8q-14 -14 -19 -20l-6 -8l-1 2v2q0 10 6 27q-19 -19 -28 -19q-5 0 -5 9q0 3 1 6v5l1 6q-14 -27 -25 -31v5q0 8 6 20q5 8 8 16l1 3l1 3l1 2v1l-3 -3l-3 -4q-7 -7 -10 -11q-9 -12 -16 -15v-1q1 0 3 11l1 6l1 8q0 3 0.5 8.5
t1.5 8.5q-9 -9 -18 -9h-2q-9 1 -10 13q0 8 8 19q9 10 9 18q-23 -12 -25 -13q-1 -1 -9 -1q-7 0 -10 6q-1 1 -1 7q0 7 9 18q11 13 22 14l-7 -1h-6q-3 -1 -7 -1q-17 0 -19 11v2q0 9 12 15l2 1l2 1l7 3l5 2l4 2q-24 10 -24 17q0 1 1 2t35 12l-1 1l-1 2q-1 0 -3 2t-3 2l-3 3l-3 3
l-3 2q-6 8 -6 13t1 6t5 1q3 0 18 -5t18 -5h3q-1 4 -15 22q-4 7 -4 11q0 6 7 6h1q10 0 20 -13q14 -16 18 -18q-18 82 -23 82l-1 -1q24 -13 49 -73q-11 32 -12 68l-1 6v5q0 23 8 23h2l3 -1h-1v-1q0 -7 21 -58l1 -3l1 -3q2 -4 3 -7t8 -22q10 -17 13 -36q-16 63 -16 115t21 65
q10 -7 10 -31v-8q0 -9 -1 -11l-1 -5v-11q2 -15 6 -41l3 -13l2 -12l1 -9l1 -6q0 109 30 157q9 -5 9 -29q0 -14 -3 -35q-9 -67 -9 -74v-1q0 3 1 4l2 6l2 10l3 11l3 14l4 15q1 4 3.5 11.5l3.5 10.5q19 61 37 61q2 0 3 -1q-2 -26 -20 -66q-19 -40 -22 -68q14 41 38 74
q31 43 68 51q-2 -21 -60 -72q-35 -56 -35 -111v-13l1 -7q1 -14 8 -27q13 71 80 150q34 40 64 65h11q-41 -23 -78 -85q53 38 125 40l-3 -11q-121 -3 -147 -90q-7 -18 -7 -49q0 -39 15 -88l4 -2l2 -2q13 -13 31 -58q0 7 8 15q7 6 16 6h2v-1l17 14q-11 -9 -14 -14h3l2 -1h1
q7 4 7 9v-1l-2 -6l6 4l-8 -6l1 -1l8 4l-7 -5h1q3 1 9 7q-1 -4 -7 -8l17 2q2 -2 2 -3v-1l-2 -2h6q1 0 1 -1q0 -2 -1 -3q3 0 3 -3v-3q7 0 8 -4v-2q0 -2 -3 -5q-6 -6 -6 -10v-1l2 -4l2 -4l2 -5l2 -4l4 -4t3 -4l1 -1l1 1v-1q1 1 3 1q9 0 16 -10q10 -10 13 -28q1 -2 1 -12
q0 -14 -6 -23l1 -7v-6q1 -4 1 -8zM410 507l-321 -201l52 105l-121 100l366 230v-89l-86 -54zM242 562l-17 -11l-5 -3l71 -59l11 23zM222 461l-61 50l-22 -14l71 -59z" />
    <glyph glyph-name="uni0000" horiz-adv-x="100" 
 />
    <glyph glyph-name="uni0000" horiz-adv-x="100" 
 />
    <glyph glyph-name="nonmarkingreturn" horiz-adv-x="682" 
 />
    <glyph glyph-name="space" unicode=" " horiz-adv-x="400" 
 />
    <glyph glyph-name="space" unicode="&#xa0;" horiz-adv-x="400" 
 />
    <glyph glyph-name="exclam" unicode="!" horiz-adv-x="321" 
d="M180 1760l-1 -1479h-142l1 1479h142zM221 74q0 -46 -33 -77q-32 -33 -77 -33q-46 0 -79 33q-32 32 -32 77q0 46 32.5 78.5t78.5 32.5q45 0 77 -33q33 -32 33 -78z" />
    <glyph glyph-name="quotedbl" unicode="&#x22;" horiz-adv-x="464" 
d="M149 1453l-1 -482h-148v482h149zM364 1453l-1 -482h-148v482h149z" />
    <glyph glyph-name="numbersign" unicode="#" horiz-adv-x="1141" 
d="M612 628l63 263h-255l-64 -263h256zM1040 891h-221l-64 -263h193v-139h-226l-110 -459h-144l111 459h-256l-110 -459h-144l111 459h-180v139h213l64 263h-185l1 139h217l86 359h143l-85 -359h255l86 359h143l-85 -359h188z" />
    <glyph glyph-name="dollar" unicode="$" horiz-adv-x="561" 
d="M305 623v-95h-143v95q-41 11 -85 56q-66 65 -66 157v22h136q0 -54 23.5 -80.5t62.5 -26.5q36 0 61.5 25.5t25.5 61.5t-23 56q-24 21 -98 40q-75 20 -120 54q-66 65 -68 158q0 91 66 157q45 45 85 55v96h143v-96q41 -10 86 -55q65 -67 65 -157v-34h-140q4 25 4 35
q1 37 -25 62.5t-62 25.5t-61 -25.5t-26 -62.5q0 -34 23 -59q47 -23 118 -42q78 -19 123.5 -71t45.5 -139q0 -92 -65 -157q-45 -45 -86 -56z" />
    <glyph glyph-name="percent" unicode="%" horiz-adv-x="976" 
d="M733 1454l-461 -879h-151l462 879h150zM873 800q2 -87 -62 -149q-62 -62 -148 -62q-87 0 -149 62q-60 60 -62 149q0 86 62 148t149 62q86 0 148 -62t62 -148zM664 882q-33 0 -56.5 -23.5t-24.5 -57.5q0 -33 24 -57t58 -24q33 0 56.5 24t23.5 57q1 34 -23 57.5t-58 23.5z
M407 1206q0 -87 -62 -149t-149 -62q-86 0 -148 62t-62 149q0 86 62 148t148 62q87 0 149 -62t62 -148zM198 1288q-34 0 -57.5 -23t-22.5 -57q0 -34 23 -57.5t57 -23.5q33 0 57 23.5t24 57.5q0 33 -24 56.5t-57 23.5z" />
    <glyph glyph-name="ampersand" unicode="&#x26;" horiz-adv-x="1232" 
d="M306 864q-76 -46 -120 -123q-45 -79 -45 -171q0 -146 102 -248t247 -102q144 0 247 102q102 102 102 248q0 42 -7 66h-122q-124 0 -195 -98h-161l38 58q112 175 318 175h101q113 0 192 93l119 -61q-52 -91 -152 -132q11 -46 11 -101q0 -205 -144 -349
q-142 -145 -347 -145q-204 0 -346 145q-144 144 -144 349q0 134 69 249q66 113 162 168q-22 43 -22 113q0 119 82 201q83 83 199 83t199 -83t83 -201q0 -40 -18 -92h-154q31 58 31 92q0 58 -42 101q-41 39 -99 39q-57 0 -99 -39q-40 -43 -40 -101q0 -1 0.5 -2.5t1 -4.5
t0.5 -6q14 -101 133 -138q-105 -36 -180 -85z" />
    <glyph glyph-name="quotesingle" unicode="'" horiz-adv-x="179" 
d="M432 1954l-273 -449h-159l265 449h167z" />
    <glyph glyph-name="parenleft" unicode="(" horiz-adv-x="564" 
d="M78 994q91 271 286 467l100 -99q-180 -183 -258 -423q-147 -462 258 -868l-100 -99q-269 269 -323 564q-41 226 37 458z" />
    <glyph glyph-name="parenright" unicode=")" horiz-adv-x="564" 
d="M423 536q-54 -296 -324 -564l-99 99q405 406 258 868q-76 240 -258 423l99 99q195 -195 287 -467q78 -232 37 -458z" />
    <glyph glyph-name="asterisk" unicode="*" horiz-adv-x="848" 
d="M748 1150v-142h-202l142 -143l-100 -100l-143 142v-202h-142v202l-143 -143l-100 101l142 143h-202v142h202l-141 143l100 100l142 -142v202h142v-202l144 142l100 -100l-143 -143h202z" />
    <glyph glyph-name="plus" unicode="+" horiz-adv-x="915" 
d="M461 1104v-316h316v-145h-316v-316h-145v316h-316v145h316v316h145z" />
    <glyph glyph-name="comma" unicode="," horiz-adv-x="445" 
d="M345 178l-186 -296h-159l178 296h167z" />
    <glyph glyph-name="hyphen" unicode="-" horiz-adv-x="902" 
d="M777 788v-145h-777v145h777z" />
    <glyph glyph-name="hyphen" unicode="&#xad;" horiz-adv-x="902" 
d="M777 788v-145h-777v145h777z" />
    <glyph glyph-name="period" unicode="." horiz-adv-x="321" 
d="M221 74q0 -46 -33 -77q-32 -33 -77 -33q-46 0 -79 33q-32 32 -32 77q0 46 32.5 78.5t78.5 32.5q45 0 77 -33q33 -32 33 -78z" />
    <glyph glyph-name="slash" unicode="/" horiz-adv-x="1026" 
d="M926 1452l-766 -1472h-160l766 1472h160z" />
    <glyph glyph-name="zero" unicode="0" horiz-adv-x="1313" 
d="M149 719q2 -255 137 -434q134 -176 321 -176q188 0 322 176q137 180 135 434q2 254 -135 434q-134 176 -322 176q-187 0 -321 -176q-135 -179 -137 -434zM0 719q2 313 177 534q179 225 430 225q253 0 430 -225q176 -222 175 -534q1 -312 -175 -534q-177 -225 -430 -225
q-251 0 -430 225q-175 221 -177 534z" />
    <glyph glyph-name="one" unicode="1" horiz-adv-x="352" 
d="M250 1454h2v-1473h-154v1320h-98v155h250v-2z" />
    <glyph glyph-name="two" unicode="2" horiz-adv-x="1200" 
d="M1091 -18l-1082 2l728 592q229 175 234 359q4 183 -110 297q-115 114 -280 114q-143 0 -251 -90q-110 -89 -137 -237l-143 1q32 210 180 337q152 131 351 131q222 0 378 -156q159 -155 151 -403t-233 -424l-462 -377l676 -1v-145z" />
    <glyph glyph-name="three" unicode="3" horiz-adv-x="1167" 
d="M908 867q159 -155 159 -373q0 -219 -158 -374q-157 -155 -378 -155q-199 0 -351 131q-148 129 -180 338h143q27 -148 137 -237q108 -90 251 -90q164 0 280 113q114 114 114 274q-1 122 -72 222q-73 111 -217 188l-90 59l90 96q58 73 58 123q0 67 -47 114q-49 47 -115 47
q-177 -11 -148 -250h-143q-14 53 -14 89q0 12 1 22q9 118 94 199q88 82 209 82q126 0 215 -89q90 -89 90 -214q0 -131 -68 -201q66 -38 140 -114z" />
    <glyph glyph-name="four" unicode="4" horiz-adv-x="1320" 
d="M920 639l2 518l-525 -518h523zM1065 640h159v-134h-159v-533h-142v533l-855 1l998 988z" />
    <glyph glyph-name="five" unicode="5" horiz-adv-x="1273" 
d="M407 1118h155q263 0 436 -167q174 -167 174 -402q1 -236 -175 -403q-172 -166 -418 -166q-204 0 -364 121q-156 118 -215 330h152q50 -141 164 -221q116 -82 263 -82q186 0 316 124q129 124 129 297q0 174 -130 297q-130 124 -322 124l-1 1h-309v23v435v23h496v-144h-352
z" />
    <glyph glyph-name="six" unicode="6" horiz-adv-x="1376" 
d="M663 1454h214l-261 -238q60 11 212 -38q160 -50 272 -174q176 -192 164 -451q-10 -259 -202 -435q-192 -175 -452 -164q-259 10 -435 203q-175 191 -164 452q11 259 204 435zM316 940q-148 -133 -157 -335q-10 -201 127 -349q133 -148 336 -157q201 -9 349 127
q147 135 156 336q9 202 -127 350q-134 147 -336 156q-200 9 -348 -128z" />
    <glyph glyph-name="seven" unicode="7" horiz-adv-x="1215" 
d="M0 1455h1115l-88 -135l-691 -1340h-170l686 1330h-852v145z" />
    <glyph glyph-name="eight" unicode="8" horiz-adv-x="1178" 
d="M539 103q162 0 274 112q114 111 114 269q0 156 -114 269q-113 111 -274 111t-274 -111q-113 -113 -113 -269q0 -158 113 -269q113 -112 274 -112zM540 1334q-65 0 -114 -47q-48 -47 -47 -112q0 -66 46 -112q50 -47 115 -47t112 47q49 48 49 112q-2 67 -47 112
q-49 47 -114 47zM767 967q123 -48 215 -181q96 -136 96 -302q0 -220 -158 -376q-157 -157 -381 -157t-381 157q-158 156 -158 376t159 376q79 78 152 107q-80 71 -79 208q-1 127 89 217q91 90 218 90q128 0 218 -90q90 -89 92 -217q-1 -138 -82 -208z" />
    <glyph glyph-name="nine" unicode="9" horiz-adv-x="1375" 
d="M613 -20h-214l261 238q-60 -11 -212 38q-158 49 -273 173q-175 192 -164 452q12 259 203 435q192 175 452 164q258 -11 434 -203q175 -191 164 -452q-10 -259 -204 -435zM306 1216q-148 -133 -157 -335q-10 -201 127 -349q133 -148 336 -157q201 -9 349 127
q147 135 156 336q9 202 -127 350q-134 147 -336 156q-200 9 -348 -128z" />
    <glyph glyph-name="colon" unicode=":" horiz-adv-x="322" 
d="M221 484q0 -45 -33 -78q-32 -32 -77 -32t-79 32q-32 34 -32 78q1 46 33 78.5t78 32.5q45 0 78 -33q33 -32 32 -78zM222 949q-2 -47 -34 -78q-32 -32 -77 -32t-79 32q-32 34 -31 78q-1 46 31 78q33 33 79 33q45 0 77.5 -32t33.5 -79z" />
    <glyph glyph-name="semicolon" unicode=";" horiz-adv-x="445" 
d="M341 949q0 -45 -33 -78q-32 -32 -78 -32q-45 0 -79 32q-32 34 -32 78q0 46 32.5 78.5t78.5 32.5t78.5 -32.5t32.5 -78.5zM345 585l-186 -296h-159l178 296h167z" />
    <glyph glyph-name="semicolon" unicode="&#x37e;" horiz-adv-x="445" 
d="M341 949q0 -45 -33 -78q-32 -32 -78 -32q-45 0 -79 32q-32 34 -32 78q0 46 32.5 78.5t78.5 32.5t78.5 -32.5t32.5 -78.5zM345 585l-186 -296h-159l178 296h167z" />
    <glyph glyph-name="less" unicode="&#x3c;" horiz-adv-x="1137" 
d="M1037 357v-170l-1037 537l1037 538v-170q-375 -194 -396 -205q-75 -39 -154.5 -80.5t-114.5 -59.5t-45 -23q86 -44 710 -367z" />
    <glyph glyph-name="equal" unicode="=" horiz-adv-x="916" 
d="M816 667v-143h-815v143h815zM815 947v-143h-815v143h815z" />
    <glyph glyph-name="greater" unicode="&#x3e;" horiz-adv-x="1137" 
d="M0 187v170q680 352 709 367q-10 5 -45 23t-114.5 59.5t-154.5 80.5q-255 131 -395 205v170l1037 -538z" />
    <glyph glyph-name="question" unicode="?" horiz-adv-x="1305" 
d="M1028 1589q177 -168 177 -410q0 -224 -157 -390q-156 -163 -371 -183v-320h-138l1 455h48q206 0 340 128q136 130 136 310q0 179 -135 310q-134 128 -327 128q-192 0 -326 -127q-134 -129 -128 -305l-147 -1q-1 234 175 404q178 170 426 170q250 0 426 -169zM714 74
q0 -43 -31 -74t-75 -31t-75 31t-31 74q0 44 31 75t75 31t75 -31t31 -75z" />
    <glyph glyph-name="at" unicode="@" horiz-adv-x="1621" 
d="M755 470q43 0 83 14q38 13 72 41q33 26 55 62q24 38 31 77q1 9 5 22q1 10 1 30q0 51 -19 96q-20 47 -53 79q-32 33 -79 53q-45 19 -96 19q-50 0 -95 -19q-47 -20 -79 -53q-33 -32 -53 -79q-19 -45 -19 -96q0 -50 19 -95q20 -47 53 -79q32 -33 79 -53q45 -19 95 -19z
M1222 325l96 -109l-31 -31q-107 -107 -243 -162q-137 -58 -289 -58q-151 0 -288 58q-137 55 -243 162t-162 243q-58 137 -58 288q0 152 58 289q56 137 162 243t243 162q137 58 288 58q152 0 289 -58q136 -56 243 -162t162 -243q58 -137 58 -289q0 -64 -10 -117
q-9 -54 -26 -81q-29 -62 -90 -99q-61 -39 -134 -39q-64 0 -122 32q-56 32 -69 52q-33 -47 -118 -93q-86 -45 -183 -45q-80 0 -152 31q-67 28 -124 83q-55 57 -83 124q-31 72 -31 152q0 81 31 153q28 67 83 124q57 55 124 83q72 31 152 31q81 0 153 -31q67 -28 124 -83
q55 -57 83 -124q31 -72 31 -153v-18q-8 -164 102 -174q38 0 72 29q15 15 24 29q8 13 10 29q1 3 1.5 8t0.5 8l3 21q3 27 3 39v1l1 28q0 122 -45 233q-46 111 -132 198q-87 85 -198 132q-111 45 -233 45q-121 0 -232 -45q-111 -47 -198 -132q-85 -87 -132 -198
q-45 -111 -45 -233q0 -121 45 -232q47 -111 132 -198q87 -86 198 -132q111 -45 232 -45q122 0 233 45q111 46 198 132q10 10 36 39z" />
    <glyph glyph-name="A" unicode="A" horiz-adv-x="1665" 
d="M875 1314l701 -1336h-162l-625 1184l-631 -1184h-158l697 1327v1l92 172z" />
    <glyph glyph-name="B" unicode="B" horiz-adv-x="1243" 
d="M144 1307v-1184h439q111 2 213 52q199 99 199 343q23 276 -407 461q132 71 177 132q23 31 25 69q0 78 -76 109q-44 18 -95 18h-475zM860 988q283 -112 283 -471q0 -333 -279 -468q-142 -69 -281 -69h-583v1475h619q112 0 198 -55q122 -74 122 -220q0 -140 -79 -192z" />
    <glyph glyph-name="C" unicode="C" horiz-adv-x="1599" 
d="M1354 530h141q-70 -256 -272 -411q-203 -157 -462 -157q-313 0 -534 222q-222 222 -222 535q0 312 222 534t535 222q262 0 467 -162q203 -157 271 -421h-143q-62 201 -223 323q-163 124 -372 124q-259 0 -440 -181t-181 -439q0 -259 181 -440t440 -181q202 0 366 120
q160 117 226 312z" />
    <glyph glyph-name="D" unicode="D" horiz-adv-x="1251" 
d="M843 288q160 150 160 429q0 281 -160 431q-120 111 -315 145q-97 13 -178 13h-205v-1177h207q322 0 491 159zM944 1256q207 -193 207 -539q0 -345 -208 -538q-145 -136 -375 -181q-124 -23 -222 -17h-241h-105l1 1474h209l137 -1q142 0 232 -18q216 -43 365 -180z" />
    <glyph glyph-name="E" unicode="E" horiz-adv-x="1236" 
d="M1132 533v-145h-858v145h858zM1136 1455v-147h-987v-1182h987v-146h-1136v1475h1136z" />
    <glyph glyph-name="F" unicode="F" horiz-adv-x="1236" 
d="M1132 533v-145h-858v145h858zM1136 1455v-147h-987v-1329l-149 1v1475h1136z" />
    <glyph glyph-name="G" unicode="G" horiz-adv-x="1715" 
d="M1643 387h-198q-69 -149 -222 -268q-203 -157 -462 -157q-313 0 -534 222q-222 222 -222 535q0 312 222 534t535 222q262 0 467 -162q203 -157 271 -421h-143q-62 201 -223 323q-163 124 -372 124q-259 0 -440 -181t-181 -439q0 -259 181 -440t440 -181q202 0 366 120
q160 117 226 312h289v-143z" />
    <glyph glyph-name="H" unicode="H" horiz-adv-x="1337" 
d="M1092 1455h145v-1475h-145v408h-947v-408h-145v1475h145v-923h947v923z" />
    <glyph glyph-name="I" unicode="I" horiz-adv-x="245" 
d="M145 1455v-1475h-145v1475h145z" />
    <glyph glyph-name="J" unicode="J" horiz-adv-x="1527" 
d="M1276 1454h150v-1687q2 -299 -210 -511q-212 -210 -509 -210q-248 0 -444 151q-189 147 -263 363h156q61 -141 211 -252q151 -112 339 -112q235 0 404 167q166 166 166 404v1687z" />
    <glyph glyph-name="K" unicode="K" horiz-adv-x="1534" 
d="M145 1450v-1475h-145v1475h145zM1414 1457l-941 -937l961 -961h-204l-961 961l940 937h205z" />
    <glyph glyph-name="L" unicode="L" horiz-adv-x="1231" 
d="M145 125h986v-145h-1131v1475h145v-1330z" />
    <glyph glyph-name="M" unicode="M" horiz-adv-x="1561" 
d="M733 250l726 1257l2 -1527h-139v984l-595 -1003l-590 993v-974h-137v1530z" />
    <glyph glyph-name="N" unicode="N" horiz-adv-x="1436" 
d="M1191 1455h145v-1486l-1191 1165v-1154h-145v1503l1191 -1184v1156z" />
    <glyph glyph-name="O" unicode="O" 
d="M757 107q253 0 434 179q179 181 179 434t-179 434q-181 179 -434 179t-434 -179q-179 -181 -179 -434t179 -434q181 -179 434 -179zM758 1477q313 0 535 -222t221 -535q0 -313 -222 -535t-535 -222t-535 222t-222 535q2 314 223 535q222 222 535 222z" />
    <glyph glyph-name="P" unicode="P" horiz-adv-x="1134" 
d="M0 1455h473q140 0 281 -69q280 -136 280 -470t-280 -470q-142 -68 -281 -68h-328v-398h-145v1475zM473 1311h-328v-790h328q112 2 213 53q199 97 199 342q0 244 -198 343q-104 52 -214 52z" />
    <glyph glyph-name="Q" unicode="Q" 
d="M314 -4l49 32l33 -50q21 -31 55 -59q73 -55 167 -55h287q146 0 259 -88q58 -47 87 -95l30 -50l-72 -44l-49 -30l-32 49q-19 30 -56 58q-71 55 -166 55h-287q-146 0 -258 88q-61 48 -89 95l-30 51zM757 107q253 0 434 179q179 181 179 434t-179 434q-181 179 -434 179
t-434 -179q-179 -181 -179 -434t179 -434q181 -179 434 -179zM758 1477q313 0 535 -222t221 -535q0 -313 -222 -535t-535 -222t-535 222t-222 535q2 314 223 535q222 222 535 222z" />
    <glyph glyph-name="R" unicode="R" horiz-adv-x="1136" 
d="M1036 916q0 -283 -202 -425q-128 -89 -264 -105l417 -406h-212l-414 403l-140 138h255q110 0 214 52q198 99 198 343t-198 343q-103 52 -214 52h-331v-1331h-145v1475h105h371q140 0 281 -69q279 -136 279 -470z" />
    <glyph glyph-name="S" unicode="S" horiz-adv-x="1174" 
d="M651 1289q-49 47 -115 47t-113 -47t-47 -114q0 -65 47 -112q36 -38 134 -44t173 -39q153 -58 246 -192q98 -137 98 -303q0 -218 -158 -373q-158 -156 -379 -156q-220 0 -376 153q-156 151 -161 388h143q5 -177 119 -287q116 -111 275 -111q163 0 277 114q116 113 116 272
q0 162 -115 274q-116 113 -265 121q-147 7 -212 66q-9 7 -17 15q-91 89 -89 214q0 127 90 215q89 89 214 89t217 -89l55 -55l-123 -93q-13 27 -34 47z" />
    <glyph glyph-name="T" unicode="T" horiz-adv-x="1219" 
d="M1119 1454v-145h-488v-1329l-145 -1v1330h-486v145h1119z" />
    <glyph glyph-name="U" unicode="U" horiz-adv-x="1448" 
d="M1348 1457v-736q-5 -313 -200 -532q-196 -222 -474 -222q-279 0 -475 223q-196 220 -199 533v734h141v-734q3 -250 159 -427q154 -175 373 -175q218 0 374 174q155 175 160 425v737h141z" />
    <glyph glyph-name="V" unicode="V" horiz-adv-x="1676" 
d="M701 119l-701 1336h162l625 -1184l631 1184h158l-697 -1327v-1l-92 -172z" />
    <glyph glyph-name="W" unicode="W" horiz-adv-x="2002" 
d="M1902 1456l-782 -1499l-168 320l-168 -321l-784 1500h166l618 -1181l85 161l-534 1020h166l451 -860l449 860h165l-530 -1020l84 -161l616 1181h166z" />
    <glyph glyph-name="X" unicode="X" horiz-adv-x="1398" 
d="M1298 1455l-564 -996l271 -479h-170l-186 330l-186 -330h-171l272 479l-564 996h170l479 -845l478 845h171z" />
    <glyph glyph-name="Y" unicode="Y" horiz-adv-x="1304" 
d="M530 -20l1 465l-531 1010h160l442 -851l443 851h159l-528 -1010l-1 -465h-145z" />
    <glyph glyph-name="Z" unicode="Z" horiz-adv-x="1251" 
d="M1151 1452l-876 -1327h857v-145h-1132l878 1327h-869v145h1142z" />
    <glyph glyph-name="bracketleft" unicode="[" horiz-adv-x="333" 
d="M0 -20v1472h138v-2h95v-145h-95v-1180h95v-145h-233z" />
    <glyph glyph-name="backslash" unicode="\" horiz-adv-x="1026" 
d="M766 -20l-766 1472h160l766 -1472h-160z" />
    <glyph glyph-name="bracketright" unicode="]" horiz-adv-x="333" 
d="M233 1452v-1472h-233v145h95v1180h-95v145h95v2h138z" />
    <glyph glyph-name="asciicircum" unicode="^" horiz-adv-x="595" 
d="M153 1006h-153l248 479l247 -479h-153l-93 201z" />
    <glyph glyph-name="underscore" unicode="_" horiz-adv-x="902" 
d="M777 125v-145h-777v145h777z" />
    <glyph glyph-name="grave" unicode="`" horiz-adv-x="516" 
d="M257 1546l-257 414h167l249 -414h-159z" />
    <glyph glyph-name="a" unicode="a" 
d="M757 107q253 0 434 179q179 181 179 434t-179 434q-181 179 -434 179t-434 -179q-179 -181 -179 -434t179 -434q181 -179 434 -179zM1370 -20v289q-10 -17 -78 -84q-222 -222 -535 -222t-535 222t-222 535q2 314 223 535q222 222 535 222t535 -222t221 -535v-740h-144z
" />
    <glyph glyph-name="b" unicode="b" 
d="M758 1333q-253 0 -434 -179q-179 -181 -179 -434t179 -434q181 -179 434 -179t434 179q179 181 179 434t-179 434q-181 179 -434 179zM145 1763v-592q11 17 78 84q222 222 535 222t535 -222t222 -535q-1 -314 -223 -535q-222 -222 -535 -222t-535 222t-221 535v1043h144z
" />
    <glyph glyph-name="c" unicode="c" horiz-adv-x="1599" 
d="M1342 529h150q-59 -204 -200 -344q-222 -222 -535 -222t-535 222t-222 535q2 314 223 535q222 222 535 222t535 -222q149 -149 205 -366h-150q-46 151 -157 265q-181 179 -434 179t-434 -179q-179 -181 -179 -434t179 -434q181 -179 434 -179t434 179q103 103 151 243z
" />
    <glyph glyph-name="d" unicode="d" 
d="M323 1154q-179 -181 -179 -434t179 -434q181 -179 434 -179t434 179q179 181 179 434t-179 434q-181 179 -434 179t-434 -179zM1370 1171v592h144v-1043q1 -313 -221 -535t-535 -222t-535 222q-221 221 -223 535q0 313 222 535t535 222t535 -222q68 -67 78 -84z" />
    <glyph glyph-name="e" unicode="e" horiz-adv-x="1599" 
d="M1498 892l-1332 -2q-22 -70 -22 -170q0 -253 179 -434q181 -179 434 -179t434 179q103 103 151 243h150q-59 -204 -200 -344q-222 -222 -535 -222t-535 222t-222 535q2 314 223 535q222 222 535 222t535 -222q149 -149 205 -363zM225 1029h1064q-27 52 -98 125
q-181 179 -434 179t-434 -179q-71 -73 -98 -125z" />
    <glyph glyph-name="f" unicode="f" horiz-adv-x="773" 
d="M103 -22v1330h-103v147h103v186q2 133 92 225q91 94 223 94q129 0 222 -94q14 -14 33 -37l-102 -101q-23 28 -31 37q-51 52 -122 52q-73 0 -122 -52q-51 -53 -51 -126v-184h118v-147h-118l-1 -1330h-141z" />
    <glyph glyph-name="g" unicode="g" 
d="M308 32l49 32l33 -50q21 -31 55 -59q73 -55 167 -55h287q146 0 259 -88q58 -47 87 -95l30 -50l-72 -44l-49 -30l-32 49q-19 30 -56 58q-71 55 -166 55h-287q-146 0 -258 88q-61 48 -89 95l-30 51zM757 107q253 0 434 179q179 181 179 434t-179 434q-181 179 -434 179
t-434 -179q-179 -181 -179 -434t179 -434q181 -179 434 -179zM769 -1201q163 0 278 115t115 278t-115 278t-278 115t-278 -115t-115 -278t115 -278t278 -115zM770 -274q220 0 377 -157q158 -156 156 -377q0 -221 -157 -377q-156 -157 -377 -157t-377 157q-157 156 -157 377
q2 222 157 377q157 157 378 157zM1361 1179q155 -191 153 -459q0 -313 -222 -535t-535 -222t-535 222t-222 535q2 314 223 535q222 222 535 222q300 0 493 -182q46 76 -56 240l127 57l37 -83q57 -127 25 -262q-10 -44 -23 -68z" />
    <glyph glyph-name="h" unicode="h" horiz-adv-x="1448" 
d="M140 1762v-586q4 6 60 70q196 222 474 222q279 0 475 -223q196 -220 199 -533v-734h-141v734q-3 250 -159 427q-154 175 -373 175q-218 0 -374 -174q-155 -175 -160 -425v-737h-141v1784h140z" />
    <glyph glyph-name="i" unicode="i" horiz-adv-x="245" 
d="M145 1455v-1475h-145v1475h145zM145 1760v-137h-145v137h145z" />
    <glyph glyph-name="j" unicode="j" horiz-adv-x="811" 
d="M568 1455h147v-1241q0 -304 -202 -519q-203 -216 -512 -217v153q245 1 406 172q161 170 161 411v1241z" />
    <glyph glyph-name="k" unicode="k" horiz-adv-x="1342" 
d="M1242 1454l-941 -1000l504 -475h-214l-447 419v-418h-144v1780h144v-1260l896 954h202z" />
    <glyph glyph-name="l" unicode="l" horiz-adv-x="245" 
d="M145 1761v-1781h-145v1781h145z" />
    <glyph glyph-name="m" unicode="m" horiz-adv-x="2213" 
d="M2113 916v-936h-140v939q-3 169 -126 291q-124 121 -297 121t-297 -121q-123 -122 -126 -291v-939h-141v939q-3 169 -126 291q-122 121 -297 121q-174 0 -296 -121q-125 -122 -126 -291v-939h-141v939q3 229 168 390q166 161 395 161q168 0 308 -90q137 -89 186 -196
q49 107 186 196q139 90 307 90q231 0 397 -161q164 -163 166 -393z" />
    <glyph glyph-name="n" unicode="n" horiz-adv-x="1448" 
d="M0 -22v736q5 313 200 532q196 222 474 222q279 0 475 -223q196 -220 199 -533v-734h-141v734q-3 250 -159 427q-154 175 -373 175q-218 0 -374 -174q-155 -175 -160 -425v-737h-141z" />
    <glyph glyph-name="o" unicode="o" 
d="M757 107q253 0 434 179q179 181 179 434t-179 434q-181 179 -434 179t-434 -179q-179 -181 -179 -434t179 -434q181 -179 434 -179zM758 1477q313 0 535 -222t221 -535q0 -313 -222 -535t-535 -222t-535 222t-222 535q2 314 223 535q222 222 535 222z" />
    <glyph glyph-name="p" unicode="p" 
d="M1192 285q179 181 179 434t-179 434q-181 179 -434 179t-434 -179q-179 -181 -179 -434t179 -434q181 -179 434 -179t434 179zM145 268v-786h-144v1237q-1 313 221 535t535 222t535 -222q222 -221 223 -535q0 -313 -222 -535t-535 -222t-535 222q-67 68 -78 84z" />
    <glyph glyph-name="q" unicode="q" 
d="M757 106q253 0 434 179q179 181 179 434t-179 434q-181 179 -434 179t-434 -179q-179 -181 -179 -434t179 -434q181 -179 434 -179zM1370 -518v786q-10 -16 -78 -84q-222 -222 -535 -222t-535 222t-222 535q2 313 223 535q222 222 535 222t535 -222t221 -535v-1237h-144z
" />
    <glyph glyph-name="r" unicode="r" horiz-adv-x="905" 
d="M802 1455v-157q-60 16 -127 16q-218 0 -374 -174q-155 -175 -160 -425v-737h-141v736q5 313 200 532q196 222 474 222q69 0 128 -13z" />
    <glyph glyph-name="s" unicode="s" horiz-adv-x="1174" 
d="M651 1289q-49 47 -115 47t-113 -47t-47 -114q0 -65 47 -112q36 -38 134 -44t173 -39q153 -58 246 -192q98 -137 98 -303q0 -218 -158 -373q-158 -156 -379 -156q-220 0 -376 153q-156 151 -161 388h143q5 -177 119 -287q116 -111 275 -111q163 0 277 114q116 113 116 272
q0 162 -115 274q-116 113 -265 121q-147 7 -212 66q-9 7 -17 15q-91 89 -89 214q0 127 90 215q89 89 214 89t217 -89l55 -55l-123 -93q-13 27 -34 47z" />
    <glyph glyph-name="t" unicode="t" horiz-adv-x="919" 
d="M482 1761v-305h337v-145h-337v-1331h-146v1331h-336v145h337v305h145z" />
    <glyph glyph-name="u" unicode="u" horiz-adv-x="1448" 
d="M1348 1457v-736q-5 -313 -200 -532q-196 -222 -474 -222q-279 0 -475 223q-196 220 -199 533v734h141v-734q3 -250 159 -427q154 -175 373 -175q218 0 374 174q155 175 160 425v737h141z" />
    <glyph glyph-name="v" unicode="v" horiz-adv-x="1676" 
d="M701 119l-701 1336h162l625 -1184l631 1184h158l-697 -1327v-1l-92 -172z" />
    <glyph glyph-name="w" unicode="w" horiz-adv-x="2213" 
d="M0 529v925h141v-927q2 -174 126 -295q122 -121 296 -121q175 0 297 121q123 121 126 295v927h141v-927q3 -174 126 -295q124 -121 297 -121t297 121q123 121 126 295v927h140v-928q-3 -229 -167 -393q-164 -163 -396 -163q-168 0 -307 91q-137 89 -186 198
q-49 -109 -186 -198q-139 -91 -308 -91q-230 0 -396 164q-165 164 -167 395z" />
    <glyph glyph-name="x" unicode="x" horiz-adv-x="1693" 
d="M103 1519l693 -694l695 695l102 -103l-694 -694l694 -694l-102 -103l-695 695l-693 -694l-103 102l694 694l-694 694z" />
    <glyph glyph-name="y" unicode="y" horiz-adv-x="1345" 
d="M1098 1457l147 -1v-1198v-163q-3 -286 -185 -491q-183 -205 -438 -205q-210 0 -376 145q-168 142 -222 370l-14 37h151l9 -20q50 -169 174 -273q124 -102 278 -102q192 0 334 157q140 159 144 382l-2 131q-43 -74 -179 -160q-138 -84 -296 -84q-257 0 -440 206
q-181 204 -183 492v776h145l-1 -775q-4 -193 137 -387q147 -164 342 -164q185 0 331 146q140 155 143 367z" />
    <glyph glyph-name="z" unicode="z" horiz-adv-x="1251" 
d="M1151 1452l-876 -1327h857v-145h-1132l878 1327h-869v145h1142z" />
    <glyph glyph-name="braceleft" unicode="{" horiz-adv-x="580" 
d="M282 556l-1 -555q20 -110 199 -110l-1 -160q-332 27 -349 264l1 561q0 62 -131 145q130 84 130 146v522q-1 133 86.5 208t263.5 93v-156q-191 -14 -199 -146v-521q1 -102 -67 -146q68 -44 68 -145z" />
    <glyph glyph-name="bar" unicode="|" horiz-adv-x="245" 
d="M145 1732v-2175h-145v2175h145z" />
    <glyph glyph-name="braceright" unicode="}" horiz-adv-x="580" 
d="M199 1l-1 555q0 101 68 145q-68 44 -67 146v521q-8 132 -199 146v156q176 -18 263.5 -93t86.5 -208v-522q0 -62 130 -146q-131 -83 -131 -145l1 -561q-17 -237 -349 -264l-1 160q179 0 199 110z" />
    <glyph glyph-name="asciitilde" unicode="~" horiz-adv-x="1200" 
d="M178 574h-178q109 205 315 205q161 0 283 -131q86 -92 190 -92q98 11 146 72l166 1q-111 -205 -317 -205q-161 0 -283 132q-87 91 -189 91q-116 -2 -133 -73z" />
    <glyph glyph-name="exclamdown" unicode="&#xa1;" horiz-adv-x="321" 
d="M41 -22l1 1479h142l-1 -1479h-142zM0 1664q0 45 32 77q33 33 78 33q46 0 78 -33q33 -31 33 -77t-32.5 -78.5t-78.5 -32.5q-44 0 -78 32q-32 34 -32 79z" />
    <glyph glyph-name="cent" unicode="&#xa2;" horiz-adv-x="730" 
d="M172 832l178 341h-16q-87 0 -148 -61t-61 -147q0 -77 47 -133zM658 1039h-132q-25 58 -61 88l-190 -366q9 -4 59 -4q69 0 122 40q41 29 68 88h132q-42 -126 -119 -185q-89 -69 -203 -69q-80 0 -117 18l-69 -129h-140l103 195l-11 12l-2 2q-98 98 -98 236t98 236t236 98
q53 0 77 -8l73 144h140l-99 -194h-1l16 -14q78 -61 118 -188z" />
    <glyph glyph-name="sterling" unicode="&#xa3;" horiz-adv-x="1047" 
d="M699 607h-278q30 -110 0 -214q-28 -97 -81 -169q41 7 212 -37l30 -8l33 -8q25 -5 71 -15q92 -18 198 15l46 -142q-141 -46 -274 -20q-32 6 -76 17l-34 9l-32 8q-125 32 -163 27q-58 -7 -194 -110l-108 104l65 69q111 126 163 301q23 80 -15 170q-1 1 -1 3h-236v143h154
q-3 5 -9 13.5t-8 11.5l-33 49q-7 11 -18.5 30.5t-12.5 21.5q-35 60 -53 110q-45 132 15 249q72 140 230 200q137 51 291 25q147 -24 245 -110q99 -87 121 -235h-151q-23 91 -92 140q-63 43 -147 57q-109 18 -206 -16q-111 -37 -156 -128q-31 -63 -6 -136q19 -56 99 -174
l32 -48q8 -13 31 -51q4 -6 5 -9h343v-143z" />
    <glyph glyph-name="currency" unicode="&#xa4;" horiz-adv-x="778" 
d="M90 922l-90 89l102 101l91 -91q53 36 139 36q90 0 149 -41l96 96l100 -101l-96 -98q35 -55 35 -140q1 -85 -35 -140l97 -97l-101 -101l-95 95q-58 -40 -149 -40q-86 0 -140 36l-91 -91l-101 101l90 89q-41 59 -41 149t40 148zM243 874q-40 -40 -40 -96q1 -56 41 -95
q39 -39 95 -39t95 39q39 41 38 95q0 56 -39 96q-38 39 -94 39q-55 0 -96 -39z" />
    <glyph glyph-name="yen" unicode="&#xa5;" horiz-adv-x="1304" 
d="M272 576h189l-461 878h160l442 -851l443 851h159l-460 -878h181v-143h-254l5 14v-91h250v-143h-250l-1 -233h-145l1 233h-258v143h258v86l9 -9h-268v143z" />
    <glyph glyph-name="brokenbar" unicode="&#xa6;" horiz-adv-x="245" 
d="M146 1732v-953h-145v953h145zM146 510v-953h-145v953h145z" />
    <glyph glyph-name="section" unicode="&#xa7;" horiz-adv-x="765" 
d="M516 967q-6 63 -53 110q-55 53 -130 53h-14q-13 -1 -27 -14q-15 -15 -17 -39q0 -21 17 -38q16 -16 39 -16q63 0 120 -23q32 -12 65 -33zM172 1206q-46 52 -46 129q2 85 61 144q60 60 144 60q206 0 206 -204v-47h-149v47q0 54 -57 54q-23 0 -39 -16q-17 -17 -17 -38
q0 -23 17 -40q13 -13 25 -14l14 1q104 0 160 -41q193 -100 175 -297q-9 -108 -22 -131q22 -44 22 -121q0 -136 -98 -234q-97 -97 -237 -97q-137 0 -235 96q-98 95 -99 277h149q1 -118 56 -171q53 -52 131 -52q77 0 130 52q54 54 54 129q0 76 -54 128q-55 53 -132 53
q-75 0 -136 51l-4 4l-2 1q-63 65 -63 148q0 74 46 129z" />
    <glyph glyph-name="dieresis" unicode="&#xa8;" horiz-adv-x="611" 
d="M221 1655q0 -45 -32 -77.5t-77 -32.5t-79 32q-33 33 -33 78q1 47 33.5 79t78.5 32t77 -33q33 -32 32 -78zM528 1655q0 -45 -32 -77.5t-77 -32.5t-79 32q-33 33 -33 78q1 47 33.5 79t78.5 32q45 0 77 -33q33 -32 32 -78z" />
    <glyph glyph-name="copyright" unicode="&#xa9;" horiz-adv-x="1581" 
d="M1081 649h142q-55 -198 -181 -295q-128 -100 -292 -100q-196 0 -338 140q-140 140 -140 338t140 338q142 140 338 140q166 0 295 -102q128 -101 180 -301h-143q-38 129 -128 197q-91 68 -204 68q-140 0 -241 -99q-99 -101 -99 -241t98 -241q100 -99 242 -99q111 0 201 66
q88 64 130 191zM1481 716q0 -306 -217 -523t-524 -217q-306 0 -523 217t-217 523q0 307 217 524t523 217q307 0 524 -217t217 -524zM746 1334q-254 0 -434 -180q-181 -179 -179 -434q-1 -253 178 -434q181 -179 434 -179q255 0 434 179t181 434q-2 256 -180 434
q-178 180 -434 180z" />
    <glyph glyph-name="ordfeminine" unicode="&#xaa;" horiz-adv-x="100" 
 />
    <glyph glyph-name="guillemotleft" unicode="&#xab;" horiz-adv-x="1276" 
d="M745 513l-1 -161l-744 386l745 387l-1 -160q-128 -67 -270 -140l-166 -86q18 -9 75 -38.5t157 -81.5t205 -106zM1175 513l-1 -161l-744 386l745 387l-1 -160q-128 -67 -270 -140l-166 -86q18 -9 75 -38.5t157 -81.5t205 -106z" />
    <glyph glyph-name="logicalnot" unicode="&#xac;" horiz-adv-x="100" 
 />
    <glyph glyph-name="registered" unicode="&#xae;" horiz-adv-x="1581" 
d="M1481 706q0 -306 -217 -523t-524 -217q-306 0 -523 217t-217 523q0 307 217 524t523 217q307 0 524 -217t217 -524zM593 627h168q59 0 114 28q100 49 100 177q0 127 -101 177q-55 28 -113 28h-168v-410zM1108 832q0 -176 -127 -264q-78 -56 -115 -60l250 -240h-191
l-236 229h-96v-229h-131v899h299q87 0 173 -42q174 -85 174 -293zM746 1324q-254 0 -434 -180q-181 -179 -179 -434q-1 -253 178 -434q181 -179 434 -179q255 0 434 179t181 434q-2 256 -180 434q-178 180 -434 180z" />
    <glyph glyph-name="overscore" unicode="&#xaf;" horiz-adv-x="1075" 
d="M975 1453v-143h-975v143h975z" />
    <glyph glyph-name="degree" unicode="&#xb0;" horiz-adv-x="478" 
d="M378 1269q0 -78 -56 -134q-55 -55 -133 -55q-79 0 -134 55t-55 134q0 78 55 133q56 56 133 56q78 0 134 -56t56 -133zM189 1312q-17 0 -28 -11.5t-11 -27.5q0 -17 11 -28t28 -11q16 0 27.5 11t11.5 28q0 16 -11.5 27.5t-27.5 11.5z" />
    <glyph glyph-name="plusminus" unicode="&#xb1;" horiz-adv-x="646" 
 />
    <glyph glyph-name="uni00B2" unicode="&#xb2;" horiz-adv-x="100" 
 />
    <glyph glyph-name="uni00B3" unicode="&#xb3;" horiz-adv-x="1610" 
 />
    <glyph glyph-name="acute" unicode="&#xb4;" horiz-adv-x="516" 
d="M416 1960l-257 -414h-159l249 414h167z" />
    <glyph glyph-name="mu" unicode="&#xb5;" horiz-adv-x="1442" 
d="M140 1455v-801q22 -198 155 -350q158 -176 376 -176q219 0 375 175q156 177 161 429v722h135v-722q-5 -311 -199 -531q-197 -221 -472 -221q-277 0 -473 222q-51 57 -58 67v-500h-140v1686h140z" />
    <glyph glyph-name="paragraph" unicode="&#xb6;" horiz-adv-x="760" 
d="M387 885h-1l-1 -496h-142l1 511q-69 15 -134 67q-110 83 -110 203t108 202q109 83 279 83v-1h273v-130h-74l-1 -935h-142l1 935h-57v-439z" />
    <glyph glyph-name="middot" unicode="&#xb7;" horiz-adv-x="322" 
d="M221 695q0 -45 -33 -78q-32 -32 -77 -32t-79 32q-32 34 -32 78q1 46 33 78.5t78 32.5q45 0 78 -33q33 -32 32 -78z" />
    <glyph glyph-name="middot" unicode="&#x2219;" horiz-adv-x="322" 
d="M221 695q0 -45 -33 -78q-32 -32 -77 -32t-79 32q-32 34 -32 78q1 46 33 78.5t78 32.5q45 0 78 -33q33 -32 32 -78z" />
    <glyph glyph-name="cedilla" unicode="&#xb8;" horiz-adv-x="430" 
d="M0 -292h26q52 0 88 19t36 41t-36 41t-88 19h-26v193h146v-61q70 -14 126 -67q58 -55 58 -128q-2 -87 -80 -146q-77 -58 -187 -58q-23 0 -63 6v141z" />
    <glyph glyph-name="uni00B9" unicode="&#xb9;" horiz-adv-x="100" 
 />
    <glyph glyph-name="ordmasculine" unicode="&#xba;" horiz-adv-x="100" 
 />
    <glyph glyph-name="guillemotright" unicode="&#xbb;" horiz-adv-x="1276" 
d="M431 352l-1 161q105 54 205 106t157 81.5t75 38.5l-79 41q-53 27 -87 45q-142 73 -270 140l-1 160l745 -387zM1 352l-1 161q105 54 205 106t157 81.5t75 38.5l-79 41q-53 27 -87 45q-142 73 -270 140l-1 160l745 -387z" />
    <glyph glyph-name="onequarter" unicode="&#xbc;" horiz-adv-x="100" 
 />
    <glyph glyph-name="onehalf" unicode="&#xbd;" horiz-adv-x="100" 
 />
    <glyph glyph-name="threequarters" unicode="&#xbe;" horiz-adv-x="1549" 
 />
    <glyph glyph-name="questiondown" unicode="&#xbf;" horiz-adv-x="1305" 
d="M178 138q-177 168 -177 410q0 224 157 390q156 163 371 183v320h138l-1 -455h-48q-206 0 -340 -128q-136 -130 -136 -310t135 -310q134 -128 327 -128q192 0 326 127q134 129 128 305l147 1q1 -234 -175 -404q-178 -170 -426 -170q-250 0 -426 169zM492 1653q0 43 31 74
t75 31t75 -31t31 -74q0 -44 -31 -75t-75 -31t-75 31t-31 75z" />
    <glyph glyph-name="Agrave" unicode="&#xc0;" horiz-adv-x="1676" 
d="M625 1587l-257 414h167l249 -414h-159zM875 1314l701 -1336h-162l-625 1184l-631 -1184h-158l697 1327v1l92 172z" />
    <glyph glyph-name="Aacute" unicode="&#xc1;" horiz-adv-x="1676" 
d="M1214 2002l-257 -414h-159l249 414h167zM875 1314l701 -1336h-162l-625 1184l-631 -1184h-158l697 1327v1l92 172z" />
    <glyph glyph-name="Acircumflex" unicode="&#xc2;" horiz-adv-x="1676" 
d="M641 1587h-181l329 343l327 -343h-181l-145 158zM875 1314l701 -1336h-162l-625 1184l-631 -1184h-158l697 1327v1l92 172z" />
    <glyph glyph-name="Atilde" unicode="&#xc3;" horiz-adv-x="1676" 
d="M1001 1793h147q-56 -167 -183 -198q-110 -30 -214 39q-58 37 -109 24q-51 -15 -51 -65h-163q57 164 183 196q109 28 212 -39q59 -38 110 -25q48 20 68 68zM875 1314l701 -1336h-162l-625 1184l-631 -1184h-158l697 1327v1l92 172z" />
    <glyph glyph-name="Adieresis" unicode="&#xc4;" horiz-adv-x="1665" 
d="M875 1314l701 -1336h-162l-625 1184l-631 -1184h-158l697 1327v1l92 172zM745 1694q0 -45 -32 -77.5t-77 -32.5t-79 32q-33 33 -33 78q1 47 33.5 79t78.5 32t77 -33q33 -32 32 -78zM1052 1694q0 -45 -32 -77.5t-77 -32.5t-79 32q-33 33 -33 78q1 47 33.5 79t78.5 32
q45 0 77 -33q33 -32 32 -78z" />
    <glyph glyph-name="Aring" unicode="&#xc5;" horiz-adv-x="1665" 
d="M786 1636q-14 0 -23 -10t-9 -25q-1 -14 9.5 -24t24.5 -10t23.5 10.5t11.5 26.5q0 11 -11.5 21.5t-25.5 10.5zM795 1466l80 -152l701 -1336h-162l-625 1184l-631 -1184h-158l697 1327v1l86 160q-53 2 -89 39q-39 39 -39 94q-1 56 37 94q39 40 95 40q55 0 94 -40
q40 -40 41 -94q0 -55 -39 -94q-38 -36 -88 -39z" />
    <glyph glyph-name="AE" unicode="&#xc6;" horiz-adv-x="2120" 
d="M2016 533v-145h-858v145h858zM884 -20v1148l-705 -1150h-179l893 1477h1127v-147h-987v-1182h987v-146h-1136z" />
    <glyph glyph-name="Ccedilla" unicode="&#xc7;" horiz-adv-x="1599" 
d="M656 -200v169q-247 32 -429 215q-222 222 -222 535q0 312 222 534t535 222q262 0 467 -162q203 -157 271 -421h-143q-62 201 -223 323q-163 124 -372 124q-259 0 -440 -181t-181 -439q0 -259 181 -440t440 -181q202 0 366 120q160 117 226 312h141q-70 -256 -272 -411
q-187 -144 -421 -156v-44q71 -14 126 -67q58 -55 58 -128q-2 -87 -80 -146q-77 -58 -187 -58q-23 0 -63 6v134q49 -7 78 -7q46 0 78.5 22.5t32.5 54.5t-32.5 54.5t-78.5 22.5q-29 0 -78 -7z" />
    <glyph glyph-name="Egrave" unicode="&#xc8;" horiz-adv-x="1236" 
d="M1132 533v-145h-858v145h858zM1136 1455v-147h-987v-1182h987v-146h-1136v1475h1136zM559 1588l-257 414h167l249 -414h-159z" />
    <glyph glyph-name="Eacute" unicode="&#xc9;" horiz-adv-x="1236" 
d="M1132 533v-145h-858v145h858zM1136 1455v-147h-987v-1182h987v-146h-1136v1475h1136zM834 2001l-257 -414h-159l249 414h167z" />
    <glyph glyph-name="Ecircumflex" unicode="&#xca;" horiz-adv-x="1236" 
d="M1132 533v-145h-858v145h858zM1136 1455v-147h-987v-1182h987v-146h-1136v1475h1136zM421 1588h-181l329 343l327 -343h-181l-145 158z" />
    <glyph glyph-name="Edieresis" unicode="&#xcb;" horiz-adv-x="1236" 
d="M1132 533v-145h-858v145h858zM1136 1455v-147h-987v-1182h987v-146h-1136v1475h1136zM525 1699q0 -45 -32 -77.5t-77 -32.5t-79 32q-33 33 -33 78q1 47 33.5 79t78.5 32t77 -33q33 -32 32 -78zM832 1699q0 -45 -32 -77.5t-77 -32.5t-79 32q-33 33 -33 78q1 47 33.5 79
t78.5 32q45 0 77 -33q33 -32 32 -78z" />
    <glyph glyph-name="Igrave" unicode="&#xcc;" horiz-adv-x="516" 
d="M350 1454v-1474h-145v1474h145zM256 1586l-256 414h167l249 -414h-160z" />
    <glyph glyph-name="Iacute" unicode="&#xcd;" horiz-adv-x="516" 
d="M148 1454v-1474h-145v1474h145zM416 2000l-257 -414h-159l249 414h167z" />
    <glyph glyph-name="Icircumflex" unicode="&#xce;" horiz-adv-x="755" 
d="M400 1454v-1474h-145v1474h145zM180 1586h-180l329 343l326 -343h-180l-146 158z" />
    <glyph glyph-name="Idieresis" unicode="&#xcf;" horiz-adv-x="630" 
d="M337 1455v-1475h-145v1475h145zM221 1700q0 -45 -32 -77.5t-77 -32.5t-79 32q-33 33 -33 78q2 46 34 79q32 32 78 32t78 -33q33 -31 31 -78zM528 1700q0 -45 -32 -77.5t-77 -32.5t-79 32q-33 33 -33 78q1 46 34 79q32 32 78 32q47 0 78 -33q33 -31 31 -78z" />
    <glyph glyph-name="Eth" unicode="&#xd0;" horiz-adv-x="1662" 
d="M334 808h175v-142h-175v-537h429q321 0 491 159q160 148 160 428q0 281 -160 429q-120 111 -315 145q-99 19 -175 13h-430v-495zM0 808h190v644h209l359 -1q139 0 232 -17q217 -43 364 -180q208 -193 208 -538t-208 -538q-146 -136 -375 -180q-124 -23 -222 -17h-568v685
h-189v142z" />
    <glyph glyph-name="Ntilde" unicode="&#xd1;" horiz-adv-x="1436" 
d="M1191 1453h145v-1473h-29l-110 109l-1052 1043v-1152h-145v1501l139 -139l1052 -1043v1154zM881 1795h147q-56 -167 -183 -198q-111 -29 -214 40q-57 36 -109 23q-51 -15 -51 -65h-163q57 166 183 197q108 28 212 -40q58 -37 110 -24q47 20 68 67z" />
    <glyph glyph-name="Ograve" unicode="&#xd2;" 
d="M757 107q253 0 434 179q179 181 179 434t-179 434q-181 179 -434 179t-434 -179q-179 -181 -179 -434t179 -434q181 -179 434 -179zM758 1477q313 0 535 -222t221 -535q0 -313 -222 -535t-535 -222t-535 222t-222 535q2 314 223 535q222 222 535 222zM748 1622l-257 414
h167l249 -414h-159z" />
    <glyph glyph-name="Oacute" unicode="&#xd3;" 
d="M757 107q253 0 434 179q179 181 179 434t-179 434q-181 179 -434 179t-434 -179q-179 -181 -179 -434t179 -434q181 -179 434 -179zM758 1477q313 0 535 -222t221 -535q0 -313 -222 -535t-535 -222t-535 222t-222 535q2 314 223 535q222 222 535 222zM1023 2038
l-257 -414h-159l249 414h167z" />
    <glyph glyph-name="Ocircumflex" unicode="&#xd4;" 
d="M757 107q253 0 434 179q179 181 179 434t-179 434q-181 179 -434 179t-434 -179q-179 -181 -179 -434t179 -434q181 -179 434 -179zM758 1477q313 0 535 -222t221 -535q0 -313 -222 -535t-535 -222t-535 222t-222 535q2 314 223 535q222 222 535 222zM610 1585h-181
l329 343l327 -343h-181l-145 158z" />
    <glyph glyph-name="Otilde" unicode="&#xd5;" 
d="M757 107q253 0 434 179q179 181 179 434t-179 434q-181 179 -434 179t-434 -179q-179 -181 -179 -434t179 -434q181 -179 434 -179zM758 1477q313 0 535 -222t221 -535q0 -313 -222 -535t-535 -222t-535 222t-222 535q2 314 223 535q222 222 535 222zM970 1792h147
q-55 -166 -183 -198q-109 -30 -214 39q-58 37 -109 24q-51 -15 -51 -65h-163q57 164 183 196q109 28 212 -39q59 -38 110 -25q48 20 68 68z" />
    <glyph glyph-name="Odieresis" unicode="&#xd6;" 
d="M757 107q253 0 434 179q179 181 179 434t-179 434q-181 179 -434 179t-434 -179q-179 -181 -179 -434t179 -434q181 -179 434 -179zM758 1477q313 0 535 -222t221 -535q0 -313 -222 -535t-535 -222t-535 222t-222 535q2 314 223 535q222 222 535 222zM714 1735
q0 -45 -32 -77.5t-77 -32.5t-79 32q-33 33 -33 78q1 47 33.5 79t78.5 32q45 0 77 -33q33 -32 32 -78zM1021 1735q0 -45 -32 -77.5t-77 -32.5t-79 32q-33 33 -33 78q1 47 33.5 79t78.5 32q45 0 77 -33q33 -32 32 -78z" />
    <glyph glyph-name="multiply" unicode="&#xd7;" horiz-adv-x="777" 
d="M101 947l237 -238l238 238l101 -101l-238 -237l238 -238l-101 -101l-238 238l-237 -238l-101 101l238 238l-238 237z" />
    <glyph glyph-name="Oslash" unicode="&#xd8;" horiz-adv-x="1625" 
d="M1098 1232l-564 -1085q90 -40 223 -40q253 0 434 179q179 181 179 434t-179 434q-53 52 -93 78zM404 217l562 1082q-84 34 -209 34q-253 0 -434 -179q-179 -181 -179 -434t179 -434q47 -46 81 -69zM467 18l-76 -145h-167l113 216q-53 34 -115 96q-222 222 -222 535
q2 314 223 535q222 222 535 222q158 0 275 -49l76 146h167l-112 -214q62 -38 129 -105q222 -222 221 -535q0 -313 -222 -535t-535 -222q-167 0 -290 55z" />
    <glyph glyph-name="Ugrave" unicode="&#xd9;" horiz-adv-x="1448" 
d="M1348 1457v-736q-5 -313 -200 -532q-196 -222 -474 -222q-279 0 -475 223q-196 220 -199 533v734h141v-734q3 -250 159 -427q154 -175 373 -175q218 0 374 174q155 175 160 425v737h141zM653 1585l-257 414h168l249 -414h-160z" />
    <glyph glyph-name="Uacute" unicode="&#xda;" horiz-adv-x="1448" 
d="M1348 1457v-736q-5 -313 -200 -532q-196 -222 -474 -222q-279 0 -475 223q-196 220 -199 533v734h141v-734q3 -250 159 -427q154 -175 373 -175q218 0 374 174q155 175 160 425v737h141zM952 2000l-257 -414h-160l249 414h168z" />
    <glyph glyph-name="Ucircumflex" unicode="&#xdb;" horiz-adv-x="1448" 
d="M1348 1457v-736q-5 -313 -200 -532q-196 -222 -474 -222q-279 0 -475 223q-196 220 -199 533v734h141v-734q3 -250 159 -427q154 -175 373 -175q218 0 374 174q155 175 160 425v737h141zM527 1585h-181l329 343l327 -343h-181l-145 158z" />
    <glyph glyph-name="Udieresis" unicode="&#xdc;" horiz-adv-x="1448" 
d="M1348 1457v-736q-5 -313 -200 -532q-196 -222 -474 -222q-279 0 -475 223q-196 220 -199 533v734h141v-734q3 -250 159 -427q154 -175 373 -175q218 0 374 174q155 175 160 425v737h141zM631 1597q0 -45 -32 -77.5t-77 -32.5t-79 32q-33 33 -33 78q1 47 33.5 79t78.5 32
t77 -33q33 -32 32 -78zM938 1597q0 -45 -32 -77.5t-77 -32.5t-79 32q-33 33 -33 78q1 47 33.5 79t78.5 32q45 0 77 -33q33 -32 32 -78z" />
    <glyph glyph-name="Yacute" unicode="&#xdd;" horiz-adv-x="1304" 
d="M530 -20l1 465l-531 1010h160l442 -851l443 851h159l-528 -1010l-1 -465h-145zM879 1902l-256 -414h-160l249 414h167z" />
    <glyph glyph-name="Thorn" unicode="&#xde;" horiz-adv-x="1135" 
d="M473 1109h-328l1 -789h328q110 2 213 53q199 97 199 342q-2 245 -198 342q-105 52 -215 52zM140 1455l-1 -202h334q140 0 281 -69q281 -137 281 -469q-1 -334 -280 -470q-142 -68 -281 -68h-328v-197h-145v2h-1v1473h140z" />
    <glyph glyph-name="germandbls" unicode="&#xdf;" horiz-adv-x="1504" 
d="M0 -15v1413q2 191 158 325q154 135 372 135q220 0 375 -136q156 -136 156 -329q0 -112 -59 -213l-6 -9l-1 -1q-9 -14 -20 -30l-3 -4l-5 -7q-18 -25 -18 -52q0 -67 80 -99q4 -1 14 -5q33 -14 40 -17l3 -2l6 -3q145 -68 227 -192q85 -122 85 -267q0 -219 -177 -372
q-175 -154 -425 -154q-200 0 -361 106q-162 106 -217 275l-25 81h139l14 -42q42 -127 167 -207q126 -81 283 -81q194 0 331 116t137 278q0 113 -74 211q-75 99 -200 147q-2 0 -4 1t-3.5 1.5t-4.5 1t-5 1.5q-26 12 -43 23h-1l-11 6q-109 75 -109 193q0 38 16 77l4 12l2 2
q10 21 24 43q4 3 7 7q59 82 59 175q0 138 -115 235q-116 98 -282 98q-163 0 -279 -98q-116 -96 -116 -231v-1412h-135z" />
    <glyph glyph-name="agrave" unicode="&#xe0;" 
d="M757 107q253 0 434 179q179 181 179 434t-179 434q-181 179 -434 179t-434 -179q-179 -181 -179 -434t179 -434q181 -179 434 -179zM1370 -20v289q-10 -17 -78 -84q-222 -222 -535 -222t-535 222t-222 535q2 314 223 535q222 222 535 222t535 -222t221 -535v-740h-144z
M736 1586l-257 414h167l249 -414h-159z" />
    <glyph glyph-name="aacute" unicode="&#xe1;" 
d="M757 107q253 0 434 179q179 181 179 434t-179 434q-181 179 -434 179t-434 -179q-179 -181 -179 -434t179 -434q181 -179 434 -179zM1370 -20v289q-10 -17 -78 -84q-222 -222 -535 -222t-535 222t-222 535q2 314 223 535q222 222 535 222t535 -222t221 -535v-740h-144z
M1035 2000l-257 -414h-160l249 414h168z" />
    <glyph glyph-name="acircumflex" unicode="&#xe2;" 
d="M757 107q253 0 434 179q179 181 179 434t-179 434q-181 179 -434 179t-434 -179q-179 -181 -179 -434t179 -434q181 -179 434 -179zM1370 -20v289q-10 -17 -78 -84q-222 -222 -535 -222t-535 222t-222 535q2 314 223 535q222 222 535 222t535 -222t221 -535v-740h-144z
M610 1586h-181l329 343l327 -343h-181l-145 158z" />
    <glyph glyph-name="atilde" unicode="&#xe3;" 
d="M757 107q253 0 434 179q179 181 179 434t-179 434q-181 179 -434 179t-434 -179q-179 -181 -179 -434t179 -434q181 -179 434 -179zM1370 -20v289q-10 -17 -78 -84q-222 -222 -535 -222t-535 222t-222 535q2 314 223 535q222 222 535 222t535 -222t221 -535v-740h-144z
M970 1793h147q-55 -167 -183 -198q-109 -30 -214 39q-58 37 -109 24q-51 -15 -51 -65h-163q57 164 183 196q109 28 212 -39q59 -38 110 -25q48 20 68 68z" />
    <glyph glyph-name="adieresis" unicode="&#xe4;" 
d="M757 107q253 0 434 179q179 181 179 434t-179 434q-181 179 -434 179t-434 -179q-179 -181 -179 -434t179 -434q181 -179 434 -179zM1370 -20v289q-10 -17 -78 -84q-222 -222 -535 -222t-535 222t-222 535q2 314 223 535q222 222 535 222t535 -222t221 -535v-740h-144z
M714 1695q0 -45 -32 -77.5t-77 -32.5q-46 0 -79 32.5t-33 78.5q1 46 33 78t79 32q45 0 77 -33q33 -32 32 -78zM1021 1695q0 -45 -32 -77.5t-77 -32.5q-46 0 -79 32.5t-33 78.5q2 46 33 78q32 32 79 32q45 0 77 -33q33 -32 32 -78z" />
    <glyph glyph-name="aring" unicode="&#xe5;" 
d="M757 107q253 0 434 179q179 181 179 434t-179 434q-181 179 -434 179t-434 -179q-179 -181 -179 -434t179 -434q181 -179 434 -179zM1370 -20v289q-10 -17 -78 -84q-222 -222 -535 -222t-535 222t-222 535q2 314 223 535q222 222 535 222t535 -222t221 -535v-740h-144z
M891 1721q0 -55 -40 -94q-39 -39 -94 -39q-56 0 -95 39q-38 40 -38 94q-2 56 37 94q39 40 95 40q55 0 94 -40q40 -40 41 -94zM753 1771q-18 0 -31 -13.5t-13 -34.5q-1 -20 13 -33.5t34 -13.5q21 0 34.5 14t14.5 36q0 18 -15.5 31.5t-36.5 13.5z" />
    <glyph glyph-name="ae" unicode="&#xe6;" horiz-adv-x="2964" 
d="M757 107q253 0 434 179q179 181 179 434t-179 434q-181 179 -434 179t-434 -179q-179 -181 -179 -434t179 -434q181 -179 434 -179zM1620 1042h1015q-48 91 -159 170q-155 110 -348 110q-242 0 -411 -162q-69 -64 -97 -118zM1515 284v-302h-139l-1 292q-13 -20 -83 -89
q-222 -222 -535 -222t-535 222t-222 535q2 314 223 535q222 222 535 222t535 -222q121 -121 159 -222q34 90 150 206q218 218 526 218q256 0 459 -159q201 -157 259 -383l-1286 -1q-41 -105 -41 -200q8 -251 182 -427q176 -175 427 -181q197 6 355 122q156 115 220 306h146
q-71 -258 -268 -409q-200 -155 -453 -155q-308 0 -526 218q-75 75 -87 96z" />
    <glyph glyph-name="ccedilla" unicode="&#xe7;" horiz-adv-x="1581" 
d="M712 -172v142q-278 6 -493 219q-219 221 -219 530t219 529q221 219 530 219q260 0 462 -160q201 -158 270 -428h-158q-60 198 -216 317q-160 119 -358 119q-249 0 -424 -174q-173 -176 -173 -422q0 -247 174 -423q176 -174 423 -174q195 0 352 115q154 112 219 307h157
q-73 -264 -272 -418q-162 -126 -347 -149v-17q70 -14 126 -67q58 -55 58 -128q-2 -87 -80 -146q-77 -58 -187 -58q-23 0 -63 6v141h26q69 0 106.5 18t37.5 42q0 22 -36 41t-88 19h-46z" />
    <glyph glyph-name="egrave" unicode="&#xe8;" horiz-adv-x="1599" 
d="M1498 892l-1332 -2q-22 -70 -22 -170q0 -253 179 -434q181 -179 434 -179t434 179q103 103 151 243h150q-59 -204 -200 -344q-222 -222 -535 -222t-535 222t-222 535q2 314 223 535q222 222 535 222t535 -222q149 -149 205 -363zM225 1029h1064q-27 52 -98 125
q-181 179 -434 179t-434 -179q-71 -73 -98 -125zM729 1587l-257 414h167l249 -414h-159z" />
    <glyph glyph-name="eacute" unicode="&#xe9;" horiz-adv-x="1599" 
d="M1498 892l-1332 -2q-22 -70 -22 -170q0 -253 179 -434q181 -179 434 -179t434 179q103 103 151 243h150q-59 -204 -200 -344q-222 -222 -535 -222t-535 222t-222 535q2 314 223 535q222 222 535 222t535 -222q149 -149 205 -363zM225 1029h1064q-27 52 -98 125
q-181 179 -434 179t-434 -179q-71 -73 -98 -125zM1026 2000l-257 -414h-159l249 414h167z" />
    <glyph glyph-name="ecircumflex" unicode="&#xea;" horiz-adv-x="1599" 
d="M1498 892l-1332 -2q-22 -70 -22 -170q0 -253 179 -434q181 -179 434 -179t434 179q103 103 151 243h150q-59 -204 -200 -344q-222 -222 -535 -222t-535 222t-222 535q2 314 223 535q222 222 535 222t535 -222q149 -149 205 -363zM225 1029h1064q-27 52 -98 125
q-181 179 -434 179t-434 -179q-71 -73 -98 -125zM602 1586h-181l329 343l327 -343h-181l-145 158z" />
    <glyph glyph-name="edieresis" unicode="&#xeb;" horiz-adv-x="1599" 
d="M1498 892l-1332 -2q-22 -70 -22 -170q0 -253 179 -434q181 -179 434 -179t434 179q103 103 151 243h150q-59 -204 -200 -344q-222 -222 -535 -222t-535 222t-222 535q2 314 223 535q222 222 535 222t535 -222q149 -149 205 -363zM225 1029h1064q-27 52 -98 125
q-181 179 -434 179t-434 -179q-71 -73 -98 -125zM706 1695q0 -45 -32 -77.5t-77 -32.5t-79 32q-33 33 -33 78q2 46 34.5 78.5t77.5 32.5q47 0 78 -33q33 -31 31 -78zM1013 1695q0 -45 -32 -77.5t-77 -32.5t-79 32q-33 33 -33 78q2 46 34.5 78.5t77.5 32.5q46 0 78 -33
q33 -31 31 -78z" />
    <glyph glyph-name="igrave" unicode="&#xec;" horiz-adv-x="516" 
d="M350 1454v-1474h-145v1474h145zM256 1546l-256 414h167l249 -414h-160z" />
    <glyph glyph-name="iacute" unicode="&#xed;" horiz-adv-x="516" 
d="M148 1454v-1474h-145v1474h145zM416 1960l-257 -414h-159l249 414h167z" />
    <glyph glyph-name="icircumflex" unicode="&#xee;" horiz-adv-x="755" 
d="M400 1454v-1474h-145v1474h145zM181 1586h-181l329 343l327 -343h-181l-145 158z" />
    <glyph glyph-name="idieresis" unicode="&#xef;" horiz-adv-x="630" 
d="M337 1454v-1474h-145v1474h145zM221 1655q0 -45 -32 -77.5t-77 -32.5t-79 32q-33 33 -33 78q2 46 34 79q32 32 78 32t78 -33q33 -31 31 -78zM528 1655q0 -45 -32 -77.5t-77 -32.5t-79 32q-33 33 -33 78q1 46 34 79q32 32 78 32q47 0 78 -33q33 -31 31 -78z" />
    <glyph glyph-name="eth" unicode="&#xf0;" horiz-adv-x="1680" 
d="M1386 595q50 244 -86 450t-380 256q-243 49 -448 -87q-207 -136 -257 -379q-49 -243 87 -450q137 -207 380 -256q243 -50 449 87q207 136 255 379zM1312 1268q142 -130 204 -316q64 -189 25 -388q-65 -306 -325 -478q-258 -172 -565 -110q-307 63 -478 323
q-173 261 -111 567q57 275 282 448q222 169 403 159q-41 20 -187 73l-20 -83l-131 31l21 91q-32 9 -102 24l34 148q52 -12 104 -26l24 90l130 -30l-25 -98q470 -154 717 -425z" />
    <glyph glyph-name="ntilde" unicode="&#xf1;" horiz-adv-x="1448" 
d="M0 -22v736q5 313 200 532q196 222 474 222q279 0 475 -223q196 -220 199 -533v-734h-141v734q-3 250 -159 427q-154 175 -373 175q-218 0 -374 -174q-155 -175 -160 -425v-737h-141zM887 1793h147q-56 -167 -183 -198q-109 -30 -214 39q-58 37 -109 24q-51 -15 -51 -65
h-163q57 164 183 196q109 28 212 -39q59 -38 110 -25q48 20 68 68z" />
    <glyph glyph-name="ograve" unicode="&#xf2;" 
d="M757 107q253 0 434 179q179 181 179 434t-179 434q-181 179 -434 179t-434 -179q-179 -181 -179 -434t179 -434q181 -179 434 -179zM758 1477q313 0 535 -222t221 -535q0 -313 -222 -535t-535 -222t-535 222t-222 535q2 314 223 535q222 222 535 222zM736 1546l-257 414
h168l249 -414h-160z" />
    <glyph glyph-name="oacute" unicode="&#xf3;" 
d="M757 107q253 0 434 179q179 181 179 434t-179 434q-181 179 -434 179t-434 -179q-179 -181 -179 -434t179 -434q181 -179 434 -179zM758 1477q313 0 535 -222t221 -535q0 -313 -222 -535t-535 -222t-535 222t-222 535q2 314 223 535q222 222 535 222zM1035 1960
l-257 -414h-160l249 414h168z" />
    <glyph glyph-name="ocircumflex" unicode="&#xf4;" 
d="M757 107q253 0 434 179q179 181 179 434t-179 434q-181 179 -434 179t-434 -179q-179 -181 -179 -434t179 -434q181 -179 434 -179zM758 1477q313 0 535 -222t221 -535q0 -313 -222 -535t-535 -222t-535 222t-222 535q2 314 223 535q222 222 535 222zM610 1586h-181
l329 343l327 -343h-181l-145 158z" />
    <glyph glyph-name="otilde" unicode="&#xf5;" 
d="M757 107q253 0 434 179q179 181 179 434t-179 434q-181 179 -434 179t-434 -179q-179 -181 -179 -434t179 -434q181 -179 434 -179zM758 1477q313 0 535 -222t221 -535q0 -313 -222 -535t-535 -222t-535 222t-222 535q2 314 223 535q222 222 535 222zM970 1793h147
q-55 -167 -183 -198q-109 -30 -214 39q-58 37 -109 24q-51 -15 -51 -65h-163q57 164 183 196q109 28 212 -39q59 -38 110 -25q48 20 68 68z" />
    <glyph glyph-name="odieresis" unicode="&#xf6;" 
d="M757 107q253 0 434 179q179 181 179 434t-179 434q-181 179 -434 179t-434 -179q-179 -181 -179 -434t179 -434q181 -179 434 -179zM758 1477q313 0 535 -222t221 -535q0 -313 -222 -535t-535 -222t-535 222t-222 535q2 314 223 535q222 222 535 222zM714 1655
q0 -45 -32 -77.5t-77 -32.5t-79 32q-33 33 -33 78q1 47 33.5 79t78.5 32q45 0 77 -33q33 -32 32 -78zM1021 1655q0 -45 -32 -77.5t-77 -32.5t-79 32q-33 33 -33 78q1 47 33.5 79t78.5 32q45 0 77 -33q33 -32 32 -78z" />
    <glyph glyph-name="divide" unicode="&#xf7;" horiz-adv-x="915" 
d="M815 680v-143h-815v143h815zM526 804q0 -45 -33 -78q-32 -32 -77 -32t-79 32q-32 34 -32 78q-1 46 32 78q33 33 79 33t77 -33q31 -32 33 -78zM529 408q0 -45 -33 -78q-32 -32 -77 -32t-79 32q-32 34 -32 78q-1 46 32 78q33 33 79 33q45 0 77 -33q32 -32 33 -78z" />
    <glyph glyph-name="oslash" unicode="&#xf8;" horiz-adv-x="1625" 
d="M1098 1232l-564 -1085q90 -40 223 -40q253 0 434 179q179 181 179 434t-179 434q-53 52 -93 78zM404 217l562 1082q-84 34 -209 34q-253 0 -434 -179q-179 -181 -179 -434t179 -434q47 -46 81 -69zM467 18l-76 -145h-167l113 216q-53 34 -115 96q-222 222 -222 535
q2 314 223 535q222 222 535 222q158 0 275 -49l76 146h167l-112 -214q62 -38 129 -105q222 -222 221 -535q0 -313 -222 -535t-535 -222q-167 0 -290 55z" />
    <glyph glyph-name="ugrave" unicode="&#xf9;" horiz-adv-x="1448" 
d="M1348 1457v-736q-5 -313 -200 -532q-196 -222 -474 -222q-279 0 -475 223q-196 220 -199 533v734h141v-734q3 -250 159 -427q154 -175 373 -175q218 0 374 174q155 175 160 425v737h141zM653 1546l-257 414h168l249 -414h-160z" />
    <glyph glyph-name="uacute" unicode="&#xfa;" horiz-adv-x="1448" 
d="M1348 1457v-736q-5 -313 -200 -532q-196 -222 -474 -222q-279 0 -475 223q-196 220 -199 533v734h141v-734q3 -250 159 -427q154 -175 373 -175q218 0 374 174q155 175 160 425v737h141zM952 1960l-257 -414h-160l249 414h168z" />
    <glyph glyph-name="ucircumflex" unicode="&#xfb;" horiz-adv-x="1448" 
d="M1348 1457v-736q-5 -313 -200 -532q-196 -222 -474 -222q-279 0 -475 223q-196 220 -199 533v734h141v-734q3 -250 159 -427q154 -175 373 -175q218 0 374 174q155 175 160 425v737h141zM527 1586h-181l329 343l327 -343h-181l-145 158z" />
    <glyph glyph-name="udieresis" unicode="&#xfc;" horiz-adv-x="1448" 
d="M1348 1457v-736q-5 -313 -200 -532q-196 -222 -474 -222q-279 0 -475 223q-196 220 -199 533v734h141v-734q3 -250 159 -427q154 -175 373 -175q218 0 374 174q155 175 160 425v737h141zM631 1695q0 -45 -32 -77.5t-77 -32.5t-79 32q-33 33 -33 78q1 47 33.5 79t78.5 32
t77 -33q33 -32 32 -78zM938 1695q0 -45 -32 -77.5t-77 -32.5t-79 32q-33 33 -33 78q1 47 33.5 79t78.5 32q45 0 77 -33q33 -32 32 -78z" />
    <glyph glyph-name="yacute" unicode="&#xfd;" horiz-adv-x="1345" 
d="M1098 1457l147 -1v-1198v-163q-3 -286 -185 -491q-183 -205 -438 -205q-210 0 -376 145q-168 142 -222 370l-14 37h151l9 -20q50 -169 174 -273q124 -102 278 -102q192 0 334 157q140 159 144 382l-2 131q-43 -74 -179 -160q-138 -84 -296 -84q-257 0 -440 206
q-181 204 -183 492v776h145l-1 -775q-4 -193 137 -387q147 -164 342 -164q185 0 331 146q140 155 143 367zM900 2000l-257 -414h-159l249 414h167z" />
    <glyph glyph-name="thorn" unicode="&#xfe;" 
d="M1192 286q179 181 179 434t-179 434q-181 179 -434 179t-434 -179q-179 -181 -179 -434t179 -434q181 -179 434 -179t434 179zM0 1729h1v9h139l-1 -574q10 17 83 91q222 222 535 222t535 -222q222 -221 223 -535q0 -313 -222 -535t-535 -222t-535 222q-73 73 -86 94v-631
h-137v2081z" />
    <glyph glyph-name="ydieresis" unicode="&#xff;" horiz-adv-x="1345" 
d="M1098 1457l147 -1v-1198v-163q-3 -286 -185 -491q-183 -205 -438 -205q-210 0 -376 145q-168 142 -222 370l-14 37h151l9 -20q50 -169 174 -273q124 -102 278 -102q192 0 334 157q140 159 144 382l-2 131q-43 -74 -179 -160q-138 -84 -296 -84q-257 0 -440 206
q-181 204 -183 492v776h145l-1 -775q-4 -193 137 -387q147 -164 342 -164q185 0 331 146q140 155 143 367zM579 1695q0 -45 -32 -77.5t-77 -32.5t-79 32q-33 33 -33 78q2 46 34 79q32 32 78 32t78 -33q33 -31 31 -78zM886 1695q0 -45 -32 -77.5t-77 -32.5t-79 32
q-33 33 -33 78q1 47 34 79q32 32 78 32q47 0 78 -33q33 -31 31 -78z" />
    <glyph glyph-name="dotlessi" unicode="&#x131;" horiz-adv-x="245" 
d="M145 1454v-1474h-145v1474h145z" />
    <glyph glyph-name="OE" unicode="&#x152;" horiz-adv-x="1928" 
d="M763 1482h-11v1h1076v-154h-602q10 -6 76 -70q221 -223 223 -539q-2 -105 -17 -168h320v-154h-372q-51 -113 -154 -217q-62 -62 -73 -69h599l-1 -154h-1069q-311 2 -534 223q-223 223 -223 539q-1 315 223 539q223 223 539 223zM763 106q255 0 433 180q181 178 181 434
t-180 434q-179 180 -434 180t-434 -180q-180 -178 -180 -434q0 -255 179 -434q180 -180 435 -180z" />
    <glyph glyph-name="oe" unicode="&#x153;" horiz-adv-x="2952" 
d="M757 107q253 0 434 179q179 181 179 434t-179 434q-181 179 -434 179t-434 -179q-179 -181 -179 -434t179 -434q181 -179 434 -179zM1606 1047h1015q-48 91 -159 170q-155 110 -348 110q-242 0 -411 -162q-69 -64 -97 -118zM1442 390q-38 -93 -150 -205
q-222 -222 -535 -222t-535 222t-222 535q2 314 223 535q222 222 535 222t535 -222q112 -112 150 -205q36 85 145 194q218 218 526 218q256 0 459 -159q201 -157 259 -383l-1286 -1q-24 -57 -35 -127q3 -34 3 -72q0 -40 -3 -74q25 -202 176 -354q176 -175 427 -181
q197 6 355 122q156 115 220 306h146q-71 -258 -268 -409q-200 -155 -453 -155q-308 0 -526 218q-110 110 -146 197z" />
    <glyph glyph-name="circumflex" unicode="&#x2c6;" horiz-adv-x="756" 
d="M181 1586h-181l329 343l327 -343h-181l-145 158z" />
    <glyph glyph-name="caron" unicode="&#x2c7;" horiz-adv-x="756" 
d="M475 1931h181l-329 -343l-327 343h181l145 -158z" />
    <glyph glyph-name="uni02C9" unicode="&#x2c9;" horiz-adv-x="714" 
d="M614 1729v-143h-614v143h614z" />
    <glyph glyph-name="breve" unicode="&#x2d8;" horiz-adv-x="646" 
d="M408 1822h138q-15 -84 -55 -134q-63 -83 -166 -99q-110 -17 -197 47q-84 62 -108 186h136q17 -53 51 -77q42 -31 95 -23q76 16 106 100z" />
    <glyph glyph-name="dotaccent" unicode="&#x2d9;" horiz-adv-x="322" 
d="M221 1696q0 -45 -32 -77.5t-77 -32.5t-79 32q-33 33 -33 78q1 47 33.5 79t78.5 32t77 -33q33 -32 32 -78z" />
    <glyph glyph-name="ring" unicode="&#x2da;" horiz-adv-x="368" 
d="M268 1721q0 -55 -40 -94q-39 -39 -94 -39t-94 39t-39 94q-1 55 38 94q39 40 94 40t94 -40q39 -38 41 -94zM131 1771q-19 0 -31.5 -13.5t-12.5 -34.5q-2 -20 12 -33.5t34 -13.5q21 0 34.5 14t15.5 36q0 18 -15.5 31.5t-36.5 13.5z" />
    <glyph glyph-name="ogonek" unicode="&#x2db;" horiz-adv-x="412" 
d="M0 -274h26q48 0 81.5 18t33.5 37q0 20 -33.5 37.5t-81.5 17.5h-26v184h139v-57q63 -12 118 -62q55 -52 55 -122q0 -83 -76 -138q-71 -55 -175 -55q-21 0 -61 6v134z" />
    <glyph glyph-name="tilde" unicode="&#x2dc;" horiz-adv-x="820" 
d="M573 1793h147q-56 -167 -183 -198q-110 -30 -214 39q-58 37 -109 24q-51 -15 -51 -65h-163q57 164 183 196q109 28 212 -39q59 -38 110 -25q48 20 68 68z" />
    <glyph glyph-name="hungarumlaut" unicode="&#x2dd;" horiz-adv-x="691" 
d="M591 1933l-221 -347h-160l214 347h167zM381 1933l-221 -347h-160l214 347h167z" />
    <glyph glyph-name="endash" unicode="&#x2013;" horiz-adv-x="100" 
 />
    <glyph glyph-name="emdash" unicode="&#x2014;" horiz-adv-x="100" 
 />
    <glyph glyph-name="quoteleft" unicode="&#x2018;" horiz-adv-x="445" 
d="M186 1160l-186 296h167l178 -296h-159z" />
    <glyph glyph-name="quoteright" unicode="&#x2019;" horiz-adv-x="445" 
d="M345 1456l-186 -296h-159l178 296h167z" />
    <glyph glyph-name="quotesinglbase" unicode="&#x201a;" horiz-adv-x="445" 
d="M345 178l-186 -296h-159l178 296h167z" />
    <glyph glyph-name="quotedblleft" unicode="&#x201c;" horiz-adv-x="464" 
d="M149 1453l-1 -482h-148v482h149zM364 1453l-1 -482h-148v482h149z" />
    <glyph glyph-name="quotedblright" unicode="&#x201d;" horiz-adv-x="464" 
d="M149 1453l-1 -482h-148v482h149zM364 1453l-1 -482h-148v482h149z" />
    <glyph glyph-name="quotedblbase" unicode="&#x201e;" horiz-adv-x="464" 
d="M149 174l-1 -482h-148v482h149zM364 174l-1 -482h-148v482h149z" />
    <glyph glyph-name="dagger" unicode="&#x2020;" horiz-adv-x="100" 
 />
    <glyph glyph-name="daggerdbl" unicode="&#x2021;" horiz-adv-x="100" 
 />
    <glyph glyph-name="bullet" unicode="&#x2022;" horiz-adv-x="436" 
d="M336 758q0 -69 -50 -119q-49 -49 -119 -49q-69 0 -118 49t-49 119q0 69 49 118q50 50 119 50q68 0 118 -50t50 -118z" />
    <glyph glyph-name="ellipsis" unicode="&#x2026;" horiz-adv-x="100" 
 />
    <glyph glyph-name="guilsinglleft" unicode="&#x2039;" horiz-adv-x="845" 
d="M745 513l-1 -161l-744 386l745 387l-1 -160q-128 -67 -270 -140l-166 -86q18 -9 75 -38.5t157 -81.5t205 -106z" />
    <glyph glyph-name="guilsinglright" unicode="&#x203a;" horiz-adv-x="847" 
d="M0 352l1 161q366 190 437 226q3 -2 -1 0t-18.5 9.5t-32.5 17t-51 26t-65 33.5l-270 140v160l747 -387z" />
    <glyph glyph-name="fraction" unicode="&#x2044;" horiz-adv-x="1016" 
d="M916 1452l-766 -1472h-150l766 1472h150z" />
    <glyph glyph-name="fraction" unicode="&#x2215;" horiz-adv-x="1016" 
d="M916 1452l-766 -1472h-150l766 1472h150z" />
    <glyph glyph-name="franc" unicode="&#x20a3;" horiz-adv-x="1410" 
d="M0 285h178l1 1167h1131l-1 -145h-1v-2h-985v-773h986l1 -145h-986l-1 -102h212l1 -143h-212v-162h-145v162h-178z" />
    <glyph glyph-name="lira" unicode="&#x20a4;" horiz-adv-x="1047" 
d="M25 810h114l-10 14q-7 11 -18.5 30.5t-12.5 21.5q-35 60 -53 110q-45 132 15 249q72 140 230 200q137 51 291 25q147 -24 245 -110q99 -87 121 -235h-151q-23 91 -92 140q-63 43 -147 57q-109 18 -206 -16q-111 -37 -156 -128q-31 -63 -6 -136q19 -56 99 -174l32 -48h-1
h380v-143h-298q-3 5 6 -18q14 -39 18 -59h274v-143h-266q-1 -18 -12 -54q-28 -97 -81 -169q41 7 212 -37l30 -8l33 -8q25 -5 71 -15q92 -18 198 15l46 -142q-141 -46 -274 -20q-32 6 -76 17l-34 9l-32 8q-126 32 -203 17q-78 -15 -154 -100l-108 104l22 21l2 1v1l3 1l38 45
q111 126 163 301l4 13h-256v143h245l-7 14q-11 25 -32 63h-206v143z" />
    <glyph glyph-name="peseta" unicode="&#x20a7;" horiz-adv-x="100" 
 />
    <glyph glyph-name="Euro" unicode="&#x20ac;" horiz-adv-x="1886" 
d="M797 508h-305q34 -106 139 -212q175 -174 423 -174q195 0 352 115q154 112 219 307h157q-73 -264 -272 -418q-201 -156 -456 -156q-310 0 -529 219q-146 148 -191 319h-334l43 142h265q-3 22 -3 69q0 35 2 59h-307l42 142h288q45 176 194 328q220 219 531 219
q259 0 461 -160q203 -158 270 -428h-158q-60 198 -216 317q-158 119 -357 119q-249 0 -424 -174q-107 -109 -142 -221h350l-42 -142h-337q-3 -20 -3 -59q0 -46 4 -69h379z" />
    <glyph glyph-name="uni2116" unicode="&#x2116;" horiz-adv-x="100" 
 />
    <glyph glyph-name="trademark" unicode="&#x2122;" horiz-adv-x="1318" 
d="M532 1436v-97h-218v-640h-97v640h-217v97h532zM908 865l310 585v-741h-90l1 398l-218 -418l-228 416v-396h-89v742z" />
    <glyph glyph-name="partialdiff" unicode="&#x2202;" horiz-adv-x="100" 
 />
    <glyph glyph-name="increment" unicode="&#x2206;" horiz-adv-x="100" 
 />
    <glyph glyph-name="product" unicode="&#x220f;" horiz-adv-x="100" 
 />
    <glyph glyph-name="summation" unicode="&#x2211;" horiz-adv-x="1095" 
 />
    <glyph glyph-name="minus" unicode="&#x2212;" horiz-adv-x="915" 
d="M815 680v-143h-815v143h815z" />
    <glyph glyph-name="radical" unicode="&#x221a;" horiz-adv-x="1607" 
 />
    <glyph glyph-name="integral" unicode="&#x222b;" horiz-adv-x="100" 
 />
    <glyph glyph-name="lessequal" unicode="&#x2264;" horiz-adv-x="936" 
 />
    <glyph glyph-name="greaterequal" unicode="&#x2265;" horiz-adv-x="521" 
 />
    <glyph glyph-name="CR" horiz-adv-x="100" 
 />
    <glyph glyph-name="sterling_alt" horiz-adv-x="691" 
d="M236 1047h217v-128h-160q13 -36 -10 -115q-18 -62 -23 -70q37 5 88 -26q53 -30 99 -30.5t109 26.5l43 -130q-204 -41 -269 -9q-66 32 -109 25q-43 -6 -135 -66l-76 88l52 54q66 77 94 175q10 31 -4 78h-149v128h74l-8 12q-4 7 -10.5 18.5t-8.5 14.5q-21 34 -34 69
q-30 89 10 168q48 92 151 131q88 33 187 16q94 -15 158 -71q66 -59 84 -179h-132q-16 62 -51 88q-34 23 -81 31q-60 11 -114 -9q-58 -19 -83 -67q-15 -31 -2 -65q11 -34 58 -101l19 -29q11 -19 16 -27z" />
    <glyph glyph-name="alt_222" horiz-adv-x="1295" 
d="M176 141q-176 168 -176 407q0 221 156 386q154 162 372 183v51h128l-1 -177h-78q-175 0 -309 -130q-137 -131 -137 -313q0 -183 136 -313t331 -130q194 0 330 129q135 129 155 310q0 23 11 34v-22h71v-46q29 29 29 33q1 -232 -174 -401q-176 -168 -422 -168t-422 167z
M491 1385q0 41 29.5 70.5t71.5 29.5t71 -30q30 -29 30 -35q0 -136 -101 -136q-42 0 -71.5 29.5t-29.5 71.5z" />
    <glyph glyph-name="alt_223" horiz-adv-x="311" 
d="M0 1358q0 43 31 74t74 31q44 0 75 -31l31 -31q0 -87 -31 -118t-75 -31q-43 0 -74 31t-31 75zM31 -18v1160h135v-1160h-135z" />
    <glyph glyph-name="alt_224" horiz-adv-x="1295" 
d="M1019 1318q176 -168 176 -407q0 -221 -156 -386q-155 -162 -372 -183v-51h-128l1 177h48q205 0 339 130q137 131 137 313q0 183 -136 313t-331 130q-193 0 -330 -129q-135 -129 -155 -310q0 -23 -11 -34v22h-71v46q-29 -29 -29 -33q-1 232 174 401q175 168 422 168
q246 0 422 -167zM704 74q0 -41 -29.5 -70.5t-71.5 -29.5t-71.5 29.5t-29.5 70.5q0 42 29.5 71.5t71.5 29.5t71.5 -29.5t29.5 -71.5z" />
    <glyph glyph-name="alt_225" horiz-adv-x="311" 
d="M211 74q0 -43 -31 -74t-74 -31q-44 0 -75 31t-31 74q0 44 31 75t75 31q43 0 74 -31t31 -75zM180 1450v-1160h-135v1160h135z" />
    <glyph glyph-name="alt_and" horiz-adv-x="1299" 
d="M406 810q-12 -10 -16 -14q-17 -16 -47 -48q-63 -66 -99 -136q-108 -194 18 -345q50 -61 125 -83q77 -23 143 -1q170 57 271 213q-9 9 -43.5 44.5t-60.5 62.5l-29 30l-26 28q-11 12 -27.5 29t-22.5 22l-104 109q-70 75 -82 89zM375 1228q-36 -55 -1 -126q24 -53 55 -95
q84 66 126 124q47 62 16 100q-36 43 -99 43q-66 0 -97 -46zM319 920q-43 60 -73 121q-32 67 -29 135q1 69 39 126q72 111 216 111q129 0 209 -95q91 -111 2 -251q-31 -45 -89 -103q-30 -27 -78 -67q16 -20 74 -80l278 -290q15 34 24 128l141 -11q-11 -135 -60 -228l226 -235
l-104 -94q-40 42 -106.5 111.5t-89.5 93.5q-120 -174 -325 -240q-109 -36 -228 -1q-117 35 -194 128q-151 184 -72 412q62 177 239 329z" />
    <glyph glyph-name="alt_4" horiz-adv-x="1195" 
d="M1095 395h-190v-415h-145v415h-760v1060h145v-915h615v915h145v-915h190v-145z" />
    <glyph glyph-name="alt_A1" horiz-adv-x="1676" 
d="M1196 391h-818l-220 -413h-158l697 1327v1l92 172l86 -164l701 -1336h-162zM451 528h673l-335 634z" />
    <glyph glyph-name="alt_A2" horiz-adv-x="1676" 
d="M1186 127v-145h-796v145h796zM875 1314l701 -1336h-162l-625 1184l-631 -1184h-158l697 1327v1l92 172z" />
    <glyph glyph-name="alt_A3" horiz-adv-x="1676" 
d="M669 646h238v-239h-238v239zM875 1314l701 -1336h-162l-625 1184l-631 -1184h-158l697 1327v1l92 172z" />
    <glyph glyph-name="alt_A4" horiz-adv-x="1676" 
d="M899 563q-2 -47 -34 -78q-32 -32 -77 -32t-79 32q-32 34 -31 78q-1 46 31 78q33 33 79 33q45 0 77.5 -32t33.5 -79zM875 1314l701 -1336h-162l-625 1184l-631 -1184h-158l697 1327v1l92 172z" />
    <glyph glyph-name="alt_B1" horiz-adv-x="1243" 
d="M144 1307v-1184h439q111 2 213 52q199 99 199 343q23 276 -407 461q132 71 177 132q23 31 25 69q0 78 -76 109q-44 18 -95 18h-475zM860 988q283 -112 283 -471q0 -333 -279 -468q-142 -69 -281 -69h-583v1475h619q112 0 198 -55q122 -74 122 -220q0 -140 -79 -192z" />
    <glyph glyph-name="alt_B2" horiz-adv-x="1243" 
d="M144 123h439q111 2 213 52q199 99 199 342q0 245 -199 342q-103 52 -213 52h-439v-788zM619 1307h-475v-252h476q103 0 145 56q23 31 25 69q0 78 -76 109q-44 18 -95 18zM860 988q283 -112 283 -471q0 -333 -279 -468q-142 -69 -281 -69h-479h-104v1475h619
q112 0 198 -55q122 -74 122 -220q0 -140 -79 -192z" />
    <glyph glyph-name="alt_E1" horiz-adv-x="1236" 
d="M1132 790v-145h-858v145h858zM1136 1455v-147h-987v-1182h987v-146h-1136v1475h1136z" />
    <glyph glyph-name="alt_E2" horiz-adv-x="1233" 
d="M1133 125v-145h-1133v145h1133zM1133 788v-145h-1133v145h1133zM1133 1451v-145h-1133v145h1133z" />
    <glyph glyph-name="alt_E3" horiz-adv-x="1236" 
d="M149 1308v-518h983v-145h-983v-519h987v-146h-1136v1475h1136v-147h-987z" />
    <glyph glyph-name="alt_F1" horiz-adv-x="1236" 
d="M1132 790v-145h-858v145h858zM1136 1455v-147h-987v-1327l-149 -1v1475h1136z" />
    <glyph glyph-name="alt_F2" horiz-adv-x="1236" 
d="M149 1308v-518h983v-145h-983v-664l-149 -1v1475h1136v-147h-987z" />
    <glyph glyph-name="alt_F3" horiz-adv-x="1231" 
d="M1131 387h-986v-407h-145v1472h1131v-145h-1v-2h-985v-773h986v-145z" />
    <glyph glyph-name="alt_f1" horiz-adv-x="1527" 
d="M1133 643h-982v-1596h-150v1596h-1v145h1q1 274 210 483q212 210 509 210q248 0 444 -151q189 -147 263 -363h-156q-61 141 -211 252q-151 112 -339 112q-235 0 -404 -167q-163 -163 -166 -376h982v-145z" />
    <glyph glyph-name="alt_f2" horiz-adv-x="1527" 
d="M151 -953h-150v1713q-2 299 210 511q212 210 509 210q248 0 444 -151q189 -147 263 -363h-156q-61 141 -211 252q-151 112 -339 112q-235 0 -404 -167q-166 -166 -166 -404v-1713zM1054 788v-145h-688v145h688z" />
    <glyph glyph-name="alt_H1" horiz-adv-x="1337" 
d="M1092 1454h145v-1474h-145v665h-947v-665h-145v1474h145v-665h947v665z" />
    <glyph glyph-name="alt_G1" horiz-adv-x="1721" 
d="M587 530h908q-70 -256 -272 -411q-203 -157 -462 -157q-313 0 -534 222q-222 222 -222 535q0 312 222 534t535 222q262 0 467 -162q203 -157 271 -421h-143q-62 201 -223 323q-163 124 -372 124q-259 0 -440 -181t-181 -439q0 -259 181 -440t440 -181q202 0 366 120
q115 85 161 169h-702v143z" />
    <glyph glyph-name="alt_G2" horiz-adv-x="1721" 
d="M1091 530h404q-70 -256 -272 -411q-203 -157 -462 -157q-313 0 -534 222q-222 222 -222 535q0 312 222 534t535 222q262 0 467 -162q203 -157 271 -421h-143q-62 201 -223 323q-163 124 -372 124q-259 0 -440 -181t-181 -439q0 -259 181 -440t440 -181q202 0 366 120
q115 85 161 169h-198v143z" />
    <glyph glyph-name="alt_g1" 
d="M308 32l49 32l33 -50q21 -31 55 -59q73 -55 167 -55h287q146 0 259 -88q58 -47 87 -95l30 -50l-72 -44l-49 -30l-32 49q-19 30 -56 58q-71 55 -166 55h-287q-146 0 -258 88q-61 48 -89 95l-30 51zM757 107q253 0 434 179q179 181 179 434t-179 434q-181 179 -434 179
t-434 -179q-179 -181 -179 -434t179 -434q181 -179 434 -179zM769 -1201q163 0 278 115t115 278t-115 278t-278 115t-278 -115t-115 -278t115 -278t278 -115zM770 -274q220 0 377 -157q158 -156 156 -377q0 -221 -157 -377q-156 -157 -377 -157t-377 157q-157 156 -157 377
q2 222 157 377q157 157 378 157zM1361 1179q155 -191 153 -459q0 -313 -222 -535t-535 -222t-535 222t-222 535q2 314 223 535q222 222 535 222q300 0 493 -182q46 76 -56 240l127 57l37 -83q57 -127 25 -262q-10 -44 -23 -68z" />
    <glyph glyph-name="alt_g2" 
d="M757 107q253 0 434 179q179 181 179 434t-179 434q-181 179 -434 179t-434 -179q-179 -181 -179 -434t179 -434q181 -179 434 -179zM757 -1041q163 0 278 115t115 278t-115 278t-278 115t-278 -115t-115 -278t115 -278t278 -115zM758 -114q220 0 377 -157
q158 -156 156 -377q0 -221 -157 -377q-156 -157 -377 -157t-377 157q-157 156 -157 377q2 222 157 377q157 157 378 157zM1232 1454h147q29 -110 5 -207q-10 -44 -23 -68q155 -191 153 -459q0 -313 -222 -535t-535 -222t-535 222t-222 535q2 314 223 535q222 222 535 222
q300 0 493 -182l-3 -13q0 1 1 3q17 73 -17 169z" />
    <glyph glyph-name="alt_i1" horiz-adv-x="245" 
d="M145 1455v-1475h-145v1475h145zM145 1689v-142h-145v142h145z" />
    <glyph glyph-name="alt_j1" horiz-adv-x="851" 
d="M598 1452h153v-736q0 -304 -214 -519q-216 -216 -537 -217v153q258 1 429 172q169 169 169 411v736z" />
    <glyph glyph-name="alt_k1" horiz-adv-x="1176" 
d="M1076 1454l-730 -799l730 -676h-231l-608 570l-92 -100v-469h-145v1474h145v-777l730 777h201z" />
    <glyph glyph-name="alt_Q1" horiz-adv-x="1605" 
d="M754 120q252 0 430 178t178 432q0 252 -178 430t-431 178t-431 -178t-178 -430q0 -254 178 -432q179 -178 432 -178zM1204 123h286l1 -146h-737q-312 0 -533 221t-221 532q0 310 222 531q219 221 531 221q311 0 532 -221q220 -220 220 -531t-221 -532q-64 -65 -80 -75z
" />
    <glyph glyph-name="alt_R1" horiz-adv-x="1136" 
d="M145 520h331q110 0 214 52q198 98 198 342t-198 342q-103 52 -214 52h-331v-788zM1036 914q0 -281 -203 -424q-128 -89 -263 -105l417 -405h-212l-408 396h-222v-396h-145v1472h476q140 0 281 -69q279 -137 279 -469z" />
    <glyph glyph-name="alt_x1" horiz-adv-x="1693" 
d="M103 1519l693 -694l695 695l102 -103l-694 -694l694 -694l-102 -103l-695 695l-693 -694l-103 102l694 694l-694 694z" />
    <glyph glyph-name="alt_x2" horiz-adv-x="1694" 
d="M542 569l102 -102l-541 -541l-102 103zM643 978l-102 -102l-541 541l103 102zM1052 875l-102 103l541 541l103 -102zM949 468l103 102l541 -541l-102 -103z" />
    <glyph glyph-name="alt_y1" horiz-adv-x="1676" 
d="M533 -520h-182l344 650l-695 1325h172l612 -1158l614 1158h178z" />
    <glyph glyph-name="alt_W1" horiz-adv-x="2025" 
d="M1925 1453l-791 -1507l-170 325l-171 -325l-793 1507h161l632 -1200l171 324l170 -324l630 1200h161z" />
    </font>
</defs>
</svg>
